/* XPM */
static char *_0f60908f6f146dcf8461b06c6d9f4b1VUqiDhplcMGTDTt1[] = {
/* columns rows colors chars-per-pixel */
"44 31 219 2 ",
"   c None",
".  c None",
"X  c #096D2E",
"o  c #06782D",
"O  c #167836",
"+  c #296C36",
"@  c #2B7A39",
"#  c #387A3A",
"$  c #2D6C2F",
"%  c #537831",
"&  c #497835",
"*  c #377A45",
"=  c #327142",
"-  c #467B4D",
";  c #527F54",
":  c #4A7B55",
">  c #D95B3A",
",  c #D14634",
"<  c #DE653D",
"1  c #D4792B",
"2  c #D95E48",
"3  c #D15C50",
"4  c #DD6344",
"5  c #DD6C49",
"6  c #DD6F5E",
"7  c #DD7759",
"8  c #DE744E",
"9  c #CF6863",
"0  c #D26D69",
"q  c #DB7363",
"w  c #DC7B6B",
"e  c #D6776B",
"r  c #D07876",
"t  c #CF7776",
"y  c #17863B",
"u  c #268934",
"i  c #3A8E36",
"p  c #4D8B36",
"a  c #6D8F35",
"s  c #1D8540",
"d  c #348645",
"f  c #2D884C",
"g  c #538554",
"h  c #5A8E5A",
"j  c #5A9359",
"k  c #498C4D",
"l  c #689857",
"z  c #729559",
"x  c #658A54",
"c  c #55A057",
"v  c #71A858",
"b  c #57936B",
"n  c #628B63",
"m  c #699D6B",
"M  c #4BA267",
"N  c #6DAF77",
"B  c #909934",
"V  c #8FA839",
"C  c #ABAB3C",
"Z  c #DD933A",
"A  c #D3B13C",
"S  c #8C9F49",
"D  c #94A548",
"F  c #ADB652",
"G  c #8C9E61",
"H  c #8BB47A",
"J  c #8EAD72",
"K  c #A7B877",
"L  c #DF8558",
"P  c #DE9E5D",
"I  c #E08D5C",
"U  c #C7BA43",
"Y  c #CCBB56",
"T  c #DD8767",
"R  c #DE9668",
"E  c #DB8A79",
"W  c #DD9675",
"Q  c #DD9A77",
"!  c #E08765",
"~  c #E1946B",
"^  c #E29475",
"/  c #E2957B",
"(  c #E08771",
")  c #DFAD75",
"_  c #E1A87A",
"`  c #E3BE68",
"'  c #DAC749",
"]  c #DAC859",
"[  c #C8C350",
"{  c #E8D34E",
"}  c #E0CC56",
"|  c #EAD655",
" . c #E9D65C",
".. c #EBD85C",
"X. c #E7D454",
"o. c #E3CD48",
"O. c #D9CA68",
"+. c #D3C678",
"@. c #DDD47B",
"#. c #E4CC66",
"$. c #E6D565",
"%. c #EBD965",
"&. c #E5D66D",
"*. c #EAD96B",
"=. c #E8D768",
"-. c #E4CC7C",
";. c #E5CE72",
":. c #E6D873",
">. c #E9D974",
",. c #E4D57A",
"<. c #E6D97B",
"1. c #E7D777",
"2. c #F0DC66",
"3. c #779884",
"4. c #66AE82",
"5. c #75B38E",
"6. c #71AC87",
"7. c #9A9A9F",
"8. c #99BD8E",
"9. c #8CB794",
"0. c #95B899",
"q. c #8BB18D",
"w. c #ABBF87",
"e. c #9D9DA2",
"r. c #9CA8A4",
"t. c #A9A9AD",
"y. c #A5A5A8",
"u. c #ADAEB2",
"i. c #B5B6BB",
"p. c #B7BABD",
"a. c #B3BAB3",
"s. c #DB9787",
"d. c #DA9B94",
"f. c #D08081",
"g. c #E29681",
"h. c #DDA384",
"j. c #DCA889",
"k. c #DDA898",
"l. c #DEB598",
"z. c #D4B88D",
"x. c #E2AA88",
"c. c #E2B587",
"v. c #E3A997",
"b. c #E2B998",
"n. c #DDBDAC",
"m. c #DBB5A8",
"M. c #DCB4B3",
"N. c #DCBAB7",
"B. c #D0AFAA",
"V. c #E2B8A8",
"C. c #E2BDB4",
"Z. c #E1AEA3",
"A. c #98C19E",
"S. c #B7C48A",
"D. c #AFC695",
"F. c #B9CBAC",
"G. c #B8CBB6",
"H. c #A8C6B2",
"J. c #C6C98C",
"K. c #D8C987",
"L. c #DAD286",
"P. c #D6C697",
"I. c #C6CF9C",
"U. c #E3C38A",
"Y. c #E6DA84",
"T. c #E5DA8C",
"R. c #E6D884",
"E. c #E4DA94",
"W. c #E9DC94",
"Q. c #E4DA9C",
"!. c #E7DA99",
"~. c #C6CEA4",
"^. c #DCC5A8",
"/. c #DCD5A7",
"(. c #C9C9B5",
"). c #DECBBC",
"_. c #D9C6B8",
"`. c #DEDAB3",
"'. c #DAD5B6",
"]. c #E2C6A8",
"[. c #E3DBA3",
"{. c #E4DCAD",
"}. c #E7D9A6",
"|. c #E2C9B9",
" X c #E3DCB4",
".X c #E3DCBB",
"XX c #E8DAB1",
"oX c #E8E1BB",
"OX c #BBBDC2",
"+X c #DBBCC0",
"@X c #B9C5C3",
"#X c #C6C6CA",
"$X c #C8C8C9",
"%X c #DCC3C1",
"&X c #DDCCCB",
"*X c #D6CDC7",
"=X c #DAD5C2",
"-X c #DDDACC",
";X c #DBD7C9",
":X c #D2D3D3",
">X c #DCD4D5",
",X c #DEDCD3",
"<X c #DCDBDC",
"1X c #D7D5DA",
"2X c #CDD0CB",
"3X c #E2DEC4",
"4X c #E2DDCC",
"5X c #E3D7C6",
"6X c #E2DDD6",
"7X c #E3DBDB",
"8X c #DFE0DB",
"9X c #E6E1C2",
"0X c #E5E0C9",
"qX c #E5E3D7",
"wX c #DCDEE4",
"eX c #E2DCE1",
"rX c #DDE0E4",
"tX c #E3E2E5",
"yX c #E2E2E8",
/* pixels */
"                                                                  *.*.                  ",
"                                                          <.>.%...|  .>.                ",
"                                                  qXoX.X{.Q.Y.>.*.1.Y./.                ",
"                                          qXqXoXQ.E.<.<.Q.Q.{.qX8X,X<X>X&X              ",
"                                    U.) c.(.#X=X3X=XE.&.$. .&.`.>X%Xk.w j.,X            ",
"                            9XQ.<.,.` P R l.p.;X,XwXwX4X'.].h.n.N.h.n.q T ,XrX          ",
"                    Q.9X[.T.Q.&...$.;.R j.=X:X6X<XwX_.s.l.).w 4 E R _.N.2 h.<X          ",
"              0 e l./.,.&..X,XT.&.,.`.;X1X>Xm.k.d.s.s.2 Q ).n.T w 4 L -Xd.T ;XwX        ",
"      f.r t t e z./.:.| T.<X&X,X6X)._.+XE l.e L _.w 8 T < ].&Xh.b.k.W =XwX>X<X<X4X      ",
"] Z 3 r 0 t E ^./.$.| Y.;Xn.W n.M.T Z.%Xw L v.4 V.M.5 j.6 ~ l.].'.Q.'.wXwXeX`.K.F G     ",
"Y Z , 9 0 E ).wX{.;.K.M._.6 ~ _.M.6 q g.d.4 j.w 8 k.~ 5X&X%X4X=X1.:.,XwX-XS.S p + -     ",
"O.A > 9 T _.&X).k.7 x.q ^ T 5 b.,X&XM.q I ( R n.j.^.*X#X<X3XR.*. .E.,XF.l # + = : ; n   ",
"K.' 1 3 j.q h.q L > ~ 7 _ m.> x.&X_.M.h.l.-X_.:Xp.@Xp.@X'.&.| =.[.;X9.d X = g : - - : 3.",
"P.O.Z Q %X4 R W x.E > ! 6 s.q ! l.].*XB.2X#XOX:X:X2X'.E.=.| =./.G.b O o X = f b 3.r.OX:X",
"[.+.' P.wXf.< ^.<XN.5 c.k.q T b.-X8X:X@X$X2X'.4X,XY...&.Y.[.F.6.s o O @ k 9.u.@XOXy.t.:X",
"  z.] O.1XN.4 l.rX7X_.E.T.-.-.-.,.<.,.E.T.<.=.$.`.[.:.L.F.5.f y i a V U O.a.e.e.e.e.u.wX",
"  K.) ' '.1X%X4XwXrXrX9X X<.%.*.*.%...%.:.E.:.@.2XH.0.4.M c v F ] | ..2.R.y.e.e.e.e.i.wX",
"  /.J.] K.<X6X4X.X`.`.'.(.~.~.~.F.S.D.D.A.A.N N 4.5.9.H.2X'.9X9XoXoXoX3X&Xy.y.t.u.t.OXrX",
"    z.R.] L.O.[ F V x p k k i s y y y y u i v 0.G.P.) ^.6XoXY.Y.oX7XC.V.*Xu.y.e.e.e.OXqX",
"    P.Q.' C % $ + + @ d j k y o y u p V F J.'.9XY.%.) '.,XqX].U.^ v.v.v.2Xe.e.t.u.i.2XqX",
"    ^.{.:.B . = k n h * # @ p a V A ' $.[.{.{.0XW.}.|.V.v.g./ C.s.v.|.P.(.i.OX+X@X#X    ",
"      /.Q.A & : - # & a B F ' ' { ..W.oXW.1.].C.V.v./ ^ x./ x.XX4X~.H l r.@X#X          ",
"      P.{.$.a % a V A ' { | %.R.[.0X6X].c.^ b.Z.( ^ s.s.^.{.!./.8.j f k                 ",
"        l.;.U A ' X.X.&.W. X4XqX|.m.^ ! ^ ! b.|.m.N._.(.[.T.I.q.                        ",
"        XXR...>.W.{.3X6XtXyXyXeX/ x.x.~ ~ _ ]..X(.`.oX[.{.                              ",
"        [.W.2.5XrXtXtXyXtXyXyXtXv.|.7X5X}.R.Y.W.[.oX                                    ",
"          1.2..XrXyXtXtXtXqX0X`./.w.H H 8.D.                                            ",
"          ;.%.XXtXqX3X'.J.K J H H m k                                                   ",
"          =.%.+.J.K G z j h h m                                                         ",
"             .D ; h n h x                                                               ",
"              D x z                                                                     "
};
