/* XPM */
static char *_f1c7285a2e94810a0f79785b9819e6bVZmON3HT10Lfrv4v[] = {
/* columns rows colors chars-per-pixel */
"80 41 207 2 ",
"   c #1E1C1C",
".  c #211E1E",
"X  c #22201F",
"o  c #211F21",
"O  c #252323",
"+  c #292626",
"@  c #2B2827",
"#  c #292728",
"$  c #2D2B2B",
"%  c #312E2E",
"&  c #34312F",
"*  c #39342F",
"=  c #322F30",
"-  c none",
";  c #3A3635",
":  c #3C3937",
">  c #3D3A3A",
",  c #423C37",
"<  c #413E3D",
"1  c #44403E",
"2  c #433E40",
"3  c #464242",
"4  c #494543",
"5  c #4D4947",
"6  c #4B4649",
"7  c #4E494B",
"8  c #524D4C",
"9  c #56514D",
"0  c #5A534D",
"q  c #534E51",
"w  c #575154",
"e  c #5A5454",
"r  c #5E5955",
"t  c #575258",
"y  c #5C5559",
"u  c #5E585C",
"i  c #60554F",
"p  c #615B56",
"a  c #635C5C",
"s  c #695D5B",
"d  c #66605D",
"f  c #6A625E",
"g  c #71645F",
"h  c #655D62",
"j  c #685F61",
"k  c #685E72",
"l  c #676065",
"z  c #6A6264",
"x  c #66656F",
"c  c #6D656A",
"v  c #6F686E",
"b  c #716665",
"n  c #726864",
"m  c #70676A",
"M  c #726A6D",
"N  c #786E6E",
"B  c #7A716E",
"V  c #6D6877",
"C  c #746D72",
"Z  c #766B76",
"A  c #796F73",
"S  c #726A7A",
"D  c #757077",
"F  c #7B7175",
"G  c #77737C",
"H  c #7D747B",
"J  c #80736C",
"K  c #827575",
"L  c #877A77",
"P  c #817679",
"I  c #84797D",
"U  c #897C7E",
"Y  c #635D82",
"T  c #625C89",
"R  c #5F689E",
"E  c #6C6383",
"W  c #6A6686",
"Q  c #6B658B",
"!  c #6D6C8D",
"~  c #746C8C",
"^  c #747686",
"/  c #7B7581",
"(  c #7A7A83",
")  c #757688",
"_  c #75718C",
"`  c #72788D",
"'  c #7C7B8A",
"]  c #686791",
"[  c #656C9D",
"{  c #6A6D9A",
"}  c #746E92",
"|  c #6E7294",
" . c #6E7A97",
".. c #757394",
"X. c #7D7594",
"o. c #767C92",
"O. c #797F94",
"+. c #74749B",
"@. c #747C9C",
"#. c #7D7A9E",
"$. c #646EA3",
"%. c #6671A1",
"&. c #6B73A3",
"*. c #6E7CA4",
"=. c #6773AC",
"-. c #6B75AB",
";. c #6C7AAB",
":. c #7276A4",
">. c #747CA4",
",. c #7A7CA2",
"<. c #737BAA",
"1. c #787DAA",
"2. c #667BB5",
"3. c #6C7DB2",
"4. c #647EBE",
"5. c #697EBB",
"6. c #617FC8",
"7. c #857D83",
"8. c #897E84",
"9. c #867D89",
"0. c #857B8D",
"q. c #847C94",
"w. c #80789D",
"e. c #78818F",
"r. c #7C8393",
"t. c #76869B",
"y. c #76869D",
"u. c #7B849A",
"i. c #6F83A2",
"p. c #6D84AB",
"a. c #7486A4",
"s. c #7B82A1",
"d. c #7B8AA3",
"f. c #7382AC",
"g. c #7882AC",
"h. c #748CAC",
"j. c #798CAE",
"k. c #7D93AE",
"l. c #6781B6",
"z. c #6D82B5",
"x. c #6E8AB6",
"c. c #6682BF",
"v. c #6B83BC",
"b. c #6C8BBC",
"n. c #7483B4",
"m. c #7887B0",
"M. c #738CB4",
"N. c #798EB4",
"B. c #7285BB",
"V. c #738BBC",
"C. c #7B8EB9",
"Z. c #6F90BC",
"A. c #7C91B3",
"S. c #7494BB",
"D. c #7B95BD",
"F. c #7499BD",
"G. c #7999BE",
"H. c #6C86C3",
"J. c #6C8CC4",
"K. c #6584C8",
"L. c #6689CE",
"P. c #6D8DCB",
"I. c #728CC3",
"U. c #748EC8",
"Y. c #6F93C3",
"T. c #6D94CB",
"R. c #6E9BCD",
"E. c #7394C5",
"W. c #759AC5",
"Q. c #7A9AC5",
"!. c #7393CD",
"~. c #739BCB",
"^. c #799BCA",
"/. c #678FD1",
"(. c #698CD1",
"). c #708FD2",
"_. c #6C93D4",
"`. c #6C9CD6",
"'. c #6C99DA",
"]. c #739DD0",
"[. c #719ED9",
"{. c #77A2C3",
"}. c #73A0CC",
"|. c #79A5CD",
" X c #6FA9DF",
".X c #73A3D5",
"XX c #76AAD5",
"oX c #7BAAD3",
"OX c #71A4DC",
"+X c #78ADDA",
"@X c #6A9CE3",
"#X c #6EA4E2",
"$X c #6CA5EA",
"%X c #73B2E5",
"&X c #79B7E3",
"*X c #72B3EC",
"=X c #75B9EA",
"-X c #74BBF1",
";X c #79C3EC",
":X c #78C6F3",
">X c #8F8386",
",X c #8A818A",
"<X c #92878B",
"1X c #818394",
"2X c #8C8797",
"3X c #8C849A",
"4X c #8183A2",
/* pixels */
"- - - - - - - - - - - - - - - - - - - - - - - - - - - - - - - - - - - - - - - - - - - - - - - - - - - - - - - - - - - - - - - - - - - - - - - - - - - - - - - - ",
"- - - - - - - - - - - - - - - - - - - - - - - - - - - - - - - - - - - - - - - - - - - - - - - - - - - - - - - - - - - - - - - - - - - - - - - - - - - - - - - - ",
"- - - - - - - - - - - - - - - - - - - - - - - - - - - - - - - - - - - - - - - - - - - - - - - - - - - - - - - - - - - - - - - - - - - - - - - - - - - - - - - - ",
"- - - - - - - - - - - - - - - - - - - - - - - - - - - - - - : > 1 1 4 2 5 8 8 7 r w 9 4 3 4 1 > > : : - - - - - - - - - - - - - - - - - - - - - - - - - - - - - ",
"- - - - - - - - - - - - - - - - - - - - - - - - - < 4 < 1 9 p d a r C c C M m p H A c z z a a z l p r < 1 < ; - - - - - - - - - - - - - - - - - - - - - - - - - ",
"- - - - - - - - - - - - - - - - - - ; - - - > 1 9 d z w e z c c c 9 a v M C M y c C A F B w d D B c l t w c d 5 > - - - - - - - - - - - - - - - - - - - - - - - ",
"- - - - - - - - - - - - - - - - * 4 r r < 4 u l c v C r 9 l a l l w 6 y w w q 7 t u u h a w c A D v c 7 w z D z p 5 : 7 r w : - - - - - - - - - - - - - - - - - ",
"- - - - - - - - - - - - - - : 6 9 r d f r q a C D D H H l t t q 7 7 h u u x x x c x C C h a w 7 r y 3 a l r a D D 8 9 a a p 9 4 ; - - - - - - - - - - - - - - - ",
"- - - - - - - - - - - - - > r r e 0 a l M c u u v G m l h l v G ` ` i.Y.R.Y.i.p.R.b.i.i.F.i.` V x u q w l v y 6 w x B c d p r r 9 > - - - - - - - - - - - - - - ",
"- - - - - - - - - - - - - - 4 6 9 r z F I H I 7.c a v N D e.j..X;XS. .R./.`.[ l.`. X*.T.].p.Y.Y.f.t.( v l h t h N H I I H l r 8 9 > - - - - - - - - - - - - - - ",
"- - - - - - - - - - - - > r d r 8 t a z m I 7.m v 7.7.1Xa.Z.x.z.R.P.3.c.K.6.K.K.J.T.T.R.b.z.v.@.Z.{.a.t.( C z u M H I F N a w r z r 1 - - - - - - - - - - - - - ",
"- - - - - - - - - - - : p g f z F H C z l h r v 7.1Xk.S.}.x.Y.2.;.n.H.2.R ] T W ! } ~ X...! { ;.`.T.*.F.M.d.V c r r z N F L H v m n d 4 - - - - - - - - - - - - ",
"- - - - - - - - - - - 0 g f b D I >XI ,XH y m I u.].C.s.R.P.%.] 3.H.<.:.1.z.b.T.(.(.P.P.B.3.&.{ [ 2.J.*.S.-XZ.G H z z H H U I F Z N z d 4 - - - - - - - - - - - ",
"- - - - - - - - - ; 0 0 9 9 a M c z M H h M H r.XXx.n.C.v.Q E ;.K.&.V.B.>.| ! _ _ ..+.-.5.5.-.3.I.3.=.H.E.{.Z.h.H F y h m m z z v w 9 e r 1 - - - - - - - - - - ",
"- - - - - - - - - 4 z n n s z F C z b a l I ,XQ.oXE.U.&X+.~ ,._.4.z.! S Z Z Z F I L K v E &.I.>.+.z.H.4.J.;.+XOXu.F F y m P P H H d l c a 8 - - - - - - - - - - ",
"- - - - - - - - : r n n n a z M m m A r M U 1X^.D.U.%X+Xw.w.1.@XI.} S z c C M A L U L M c k %.OX&.Q :.K./.H.}.T.G.I U z F 8.7.I D l u h d d 3 - - - - - - - - - ",
"- - - - - - - - > 9 r d a q a p y y p 7 m P 4X~.F.z.#X'.w.q.<.*X1.X.7.H G v h c P I K F v k T OXJ.Q ~ 5.$Xv.j.m.Q.I I a h m j z c t t M Z s 9 - - - - - - - - - ",
"- - - - - - - - 4 5 8 w 7 : e z z h y q j A u.|.j.V._.L.3.q.w.oX^.q.0.>X/ H Z z z A H G Z S [ @X(.W Y =.:XP.}.E.G.P I j N A C c h 7 8 j z y r < - - - - - - - - ",
"- - - - - - - - 9 z c v h 3 8 a z C m t y F H .X*X].n.J.U.B.w.+.E.C.1X9.9.9.9.8.H c F H / +.H.L.c.Y k 4.%XK.G.Q.d.I U z 8.9.8.Z h 2 p c c f a 1 - - - - - - - - ",
"- - - - - - - - 9 d z l h 8 5 7 8 e e y 8 z N a.W.a.S.!.B.5.I.<.&.B.U.f.w.3X3X3X0.) W +.n.v.2.P.{ E { !.;.;.oX|.7.>XH a m h v z q ; t j m c d > - - - - - - - - ",
"- - - - - - - - 4 9 9 q q 3 ; q y r l N m 8 z Z a.=X=Xf.E.V.1.g.3.B.I.P.(._.).!.^.Q.V.3.[ [ H.&.} g.~.A.s.].}.1X8.m y Z A M b f ; $ 7 y u r r < - - - - - - - - ",
"- - - - - - - - 1 9 w y y 7 ; < M D c c N 8 q c C d.S.M.W.B.[.B.w.w.#.,.+.:.:.>.,.+.w.1.z.c.$.$.J.I.R.|.G.4X2X<XA q c H P I K e + > y r r e 9 - - - - - - - - - ",
"- - - - - - - - : r f c c l 3 + < z l u u h e 6 z F G y.d.D.+Xj.n.B.V.V.V.m.n.n.B.H.H.U.H.5.J.V.f.~.*.i.r.H I r w v c c z A z % $ 8 l z l d 4 % - - - - - - - - ",
"- - - - - - - - & 5 a d c l 9 : % % w c Z F A m e y D H ( a.M.N.W.n.D.OXJ.`.$XL.2.K._._.f.g.&X=XE.A.` l v u 6 t A H H F G a = O 1 8 9 w d r $ $ - - - - - - - - ",
"- - - - - - - - - 1 e 8 q q 5 1 ; O ; 8 m L L K N M e 8 h Z ( O.a.N.XX~.>.b..XT.| M.*X.XW.j.M.d.q.0.z 7 3 e y q z F Z Z u - # < 9 e q 1 4 : O - - - - - - - - - ",
"- - - - - - - - - - < 8 9 l c h 5 $ O + 3 f n J U L A j w 7 t u h A / ( ' ` O.@.@.@.o.^ / H C c u 6 6 h C H A h e y y 2 $ $ 4 j B B n d 1 O % - - - - - - - - - ",
"- - - - - - - - - * - : 9 d c l t q & . $ * 0 g J I I A t c C c y w w w q t u u t t q q 7 t t t y l h j / H Z C t $ # O $ 2 m K B n d 5 $ O - - - - - - - - - - ",
"- - - - - - - - - - $ % : 0 f e 7 3 3 3 * @ * * , i n a G 7.7.,X7.z A ,XD l c u h h c h h h v Z H H H t q y 2 $ O o O < 7 7 i j n f 1 @ X $ - - - - - - - - - - ",
"- - - - - - - - - - - - @ & < < 3 y z c y 3 - & @ @ @ , a z C P A a 7.8.7.H 7.v v Z H G H k h H A h r 3 O o o o # > e h M m p 4 4 : + # # - - - - - - - - - - - ",
"- - - - - - - - - - - - @ % 8 p a p a z c z w ; ; , @ @ # = : < : 2 e e h z C u 7 t t q q 7 > < - % $ # o # = - 6 z m c j j h s t : @ $ - - - - - - - - - - - - ",
"- - - - - - - - - - - - - + - 9 a d a a z w 3 t a a w 3 ; + + @ o o + O + O o o + + O O $ + + = + + = ; 2 7 e h q 7 y a p i 8 3 - $ - - - - - - - - - - - - - - ",
"- - - - - - - - - - - - - +   @ ; 4 r r > 4 a z j j m b p < 7 > ; = % $ O $ $ $ % = % $ ; - : 2 2 > 2 a u u z c l q , 1 e < % o o O - - - - - - - - - - - - - - ",
"- - - - - - - - - - - - - - O + $ @ - $   & 1 6 0 d f a 7 r A M m z z w 3 z a a a y 7 > h a z j z z 7 8 w a a e 5 < # O = o O + # - - - - - - - - - - - - - - - ",
"- - - - - - - - - - - - - - - % $ @ + X   O O @ $ ; 4 1 w M n B N A A e a F H C z z h 8 h a z z z s 9 : , ; % $ # +   O O   @ $ $ - - - - - - - - - - - - - - - ",
"- - - - - - - - - - - - - - - - - % + + @ + O O X O X + < 1 1 4 5 9 r 3 0 a a p w e a y 8 6 < < ; % $ O O O O O # O # @ O $ - - - - - - - - - - - - - - - - - - ",
"- - - - - - - - - - - - - - - - - - - - - % % $ @ @ O X O $ @ # + + % O # + O $ $ - > $ O + $ @ $ + O X o O # @ $ - - - - - - - - - - - - - - - - - - - - - - - ",
"- - - - - - - - - - - - - - - - - - - - - - - - - - $ $ # # # # $ $ $ . + O . . O O + O o + + + + % $ @ $ - - - - - - - - - - - - - - - - - - - - - - - - - - - ",
"- - - - - - - - - - - - - - - - - - - - - - - - - - - - - - - % % - $ @ $ $ + $ @ # # $ $ $ $ $ % - - - - - - - - - - - - - - - - - - - - - - - - - - - - - - - ",
"- - - - - - - - - - - - - - - - - - - - - - - - - - - - - - - - - - - - - - - - - - - - - - - - - - - - - - - - - - - - - - - - - - - - - - - - - - - - - - - - ",
"- - - - - - - - - - - - - - - - - - - - - - - - - - - - - - - - - - - - - - - - - - - - - - - - - - - - - - - - - - - - - - - - - - - - - - - - - - - - - - - - ",
"- - - - - - - - - - - - - - - - - - - - - - - - - - - - - - - - - - - - - - - - - - - - - - - - - - - - - - - - - - - - - - - - - - - - - - - - - - - - - - - - "
};
