/* XPM */
static char *cf3450eb27a3424289c3483758364d90z08fWCVU8PymTTFe[] = {
/* columns rows colors chars-per-pixel */
"64 64 71 1 ",
"  c #B17A36",
". c #B57D38",
"X c #B97F39",
"o c #BC813A",
"O c #C3853D",
"+ c #C6883E",
"@ c #CA8A3F",
"# c #CC8B40",
"$ c #D38F43",
"% c #D39143",
"& c #DC9545",
"* c #DE9847",
"= c #DB9748",
"- c #DE9848",
"; c #E39643",
": c #E29846",
"> c #EB9A45",
", c #E29748",
"< c #E59B49",
"1 c #EC9E4B",
"2 c #F29D46",
"3 c #F49F48",
"4 c #EEA04C",
"5 c #F5A049",
"6 c #F6A24B",
"7 c #F0A04C",
"8 c #F3A24E",
"9 c #F4A34E",
"0 c #F5A44E",
"q c #F7A54F",
"w c #F8A34C",
"e c #F9A44E",
"r c #F9A54E",
"t c #FBA54E",
"y c #FBA64F",
"u c #FDA74F",
"i c #ECA151",
"p c #F4A450",
"a c #F7A550",
"s c #F4A554",
"d c #F5A654",
"f c #F8A550",
"g c #F8A650",
"h c #F8A651",
"j c #FEA750",
"k c #F7A856",
"l c #F7A857",
"z c #FCA851",
"x c #FEA951",
"c c #FFA952",
"v c #FFA953",
"b c #FFAB53",
"n c #FBA855",
"m c #FFAA56",
"M c #FFAB56",
"N c #FDAB58",
"B c #FFAB58",
"V c #FFAC58",
"C c #FFAE5F",
"Z c #FFAE60",
"A c #FFAF60",
"S c #FFAF61",
"D c #FFB063",
"F c #FFB066",
"G c #FFB166",
"H c #FFB269",
"J c #FFB36B",
"K c #FFB36D",
"L c #FFB46E",
"P c #FFB471",
"I c #FFB571",
/* pixels */
"ccccccVCmccccccccccq*%%&6cccccccccc1O        o@&qmcccccccccccmDG",
"ccVVmmVVccccccccqqq4:%*<qcccccccqq8,+oOO++OO+@%1qjaqyuqucccccmNC",
"jBGHCVmmccccccca<**&;>7qzccccmcw<&@++%:11111117qcy<:>>25ycccuNNN",
"VZKHZmccccccccg1&%&:>7ubcccc811:%+oo%1gmNcccuuyqq1:&>223ycmcbcbu",
"KKGCmmcccccccg<&%&4qqyccccN8%+OOoo+%1gjmcbcu5>:&&*;>5uyybbVNNccc",
"PHZmcccccccca1&&*<qcmccccz9&o .XO@%1gccccuq4>;:&&:>3uccccNVNbccc",
"ZZBmcccccccy1&;>4qccccccb8%o..+$<18acccccq<&&*1qqqqycccccNNNcccc",
"VVmcccccczy1&&>5ucccccczq:o.o@&1amccuycccq:&&<qcccccccccccCCNccc",
"mcccccccca<:;>5ucccccccz<$oo&4qzVVmj55ybby>>4qcccccccccccNHHNbcc",
"cccccccca4%&>5uccccccca1%++%8bNNVVmy>>5yzu55ucccccccccccNNHHNbcc",
"cccccccy<&%*4ucccccccq<%OO*8umNNmccq:&>5ycquucccccccccccNNCCNccc",
"ccccccu4&%=<ybccccccc8&+O$5NNNNNmcq4:;>5yccccccccccccccmNCCbcccc",
"cccccu5>%&4qccccccccc1++&8cNGHNmcq<:4qyzccccccccccccccccNNNccccc",
"ccccu5>;:<qccccccccca:O+1mNCHHCyq4*:qcccccccccccccccccmNNNNccccc",
"cccy3>&*4qzcccccccca1%oO4VGGGCNq<*;>ycccccccccccccccccNNNbcccccc",
"cccq>;&:qcccccccccc8&Oo+4CPPDNq4&%>5ycccccccccccccccmNccNbcccccc",
"cccq:&;>yccccccccbb4@o+%9NLLDk<&%&4zccccccubcbcbcccNNN95yccccccc",
"ccu4&&>5qcccccccccq:Oo%1yNHLDd*%&:qbccccccbNNNcucccumq52yccccccc",
"cy5>&&7ucccccccccq1%oO:qcNCCNq&%@5ycccccccuNGHNbcccy54qycccccccc",
"my>;&<qcccccccccc8%+o@4cbNNNcq*&>6ycccccccbNGGNcccNq>>yccccccccc",
"Nk:*4ycccccccccbu1@o+%8mNNNccq&&5uuucccccccNNNNccNNd::9ccccccccc",
"ki&*5cccccccccccm1+X%1qmNmmccq<<ybcccccccccuccubbuNn<:qccccccccc",
"-=%*qbcccccccccbc1OO<qccmmccczqqucccccccccccccccccNuzquccccccccc",
"%%%:qcccccccccccc1+O1ccccccccccccccccccccccccccccctucNccccccmmcc",
"%&&>qcccccccccccc1OO1ccccccccccccccccccccccccccccu55zcccccccNNNx",
"%&>5ycccccccccccg<OO1cccmccccccccccccccccccccccccy>>tccccccmNNcb",
"%&4ucccccccccccq1$XO1ccmBVmccccccccccccccccccccccq::7ccccccmCNNc",
"&:qcccccccccccc8%++$8cmmVVmcyyccccccccccccccccccq4&:qccccccmNNqy",
";>ycccccccccccc4#O,3gmVCCVmu25qcccubcbcccccccccq<&;>ycccbNNNCn<=",
"25ucccccccccccc:OO1mcmVVVBj932ycccbNNNbcccccccc9*&>5ycccubNCNd=%",
"yucccccccccccq<%.O1mcmBCBa53yyccccuNHGNbccccccbq*&4uccccbcNCNs-%",
"uccccccccccccq*@+$3ccmVVmy22ycccccbNGGNcccccczg4::yuccccbNNNcq*%",
"ccccccccccccmq-&:9ubxNCNcq22qcccccccNNNxcccccq><4qzccccNNNbmcq&%",
"cccccccccccj8<%%qbbuxNNnq4>>ycccccccccubcccuq4&:qbccccccNNbxu7&%",
"ccccccccccc8%oo#4cxbNNbq<&&*quccccccccbccccy<&;>qccccccmCCbt5>&%",
"ccccccccccy<o .@4cxNCVN9&&&<qcccccccccccccu4&&>5uccccccNNNNt>;&%",
"ccccccccca1%o.O&8bcmVVNq=&4qcccccccccccccy5;&&4ycccccccNNNmq:&;>",
"cccccccq8:%+O@%<qccNCVNy::qccccccccccccccy2>;<qccccccNVVCNz5&&>2",
"ccccccms%ooO*9qquNNNCVcy>>qccccccccccccccy5>4qccccccNCGHCn5>&&2u",
"ccccccq:O .#4bucbNNCNnz455ycccccNcccccccq4>>yccccccmNDLHCk>;&:qc",
"ccccmg1%o.O&4NcbNNCNNy<<7uccccbbbNNcccbq<&%:qccccccuNCDCNy:&;>yu",
"cccg8:%+O#&<qmcNNCNbb4&&qcccccNNNNNccuy4*&&<qccccccNNCNbm9*&>7uu",
"ccb8$Oo+*49yNNNcNCNq5>&&qccccuNVNcucuy<;;>4yccccccbcVCNNcq&&7ucc",
"cc8&O.o$aNNNNNNbCNbz>;*<qccccNNNbcccq4*&>5zbccccccbNNNcuq4&:qccc",
"c8$O+$:dGHCNbNNNCNmy::4quccccbCNcccq<*:>5uccccccccNNNbbq<&;>ycbc",
"1:@@&<aCLIDNcNCNNmq4&:qccccccNNNNccq<*>5ubccccccNbVNbyq4&&>5uuqq",
"O@*48amZLLCcccNCNy:*:>quccccccNCmccyqq5uccccccccVNNNbq4:%*4ucq<*",
"O$9NcmCGHDNucNNNq4&&>5uccccuNNNCmccccccccccccccNCNbxcq&@%:qbb4&@",
"18gccNHLCNbcccNy<=%*4uccccccNNCNNcccccccccccbbNNVCbbuq&&:>yuN4@o",
"cccmNCHHNcbNccq4&%&<ycccccVVCNNNuccccccccccccNNNVNNut4*&>2ucb4O ",
"cccmHHDNuuNNby<&%&4quccccVHHDNmcccccccccccccccbNmccq<&:>5uucc1O ",
"cccBGDNcNNNNq4*%=<qccccccVHLGCVmccccccccccccccccccq4&&>5ucccy:O ",
"cccmVVccNVDa<*;>8qcccccccmCGKHCmNccccccccccccccccq<&%&4ucccq:%o ",
"ccccccccNCn9<*>5uccccccccmCGKHCmubcccccccccccccccq:%*<qccccq&+oo",
"ccccccuNCn854qyqcccccccccVHLGCVmccccccccccccccccc6>>7yccccm4#o+#",
"cccccNbNNn55ucbccccccmcccVHHCmcccccccccccccccccuyq55ucccNcq<oo%:",
"cccNbNNNNNytucccccccVVmcuNNNmcccccccccccccbcccbt52yqcccccy<%oO:y",
"ccccNCCNNucccccccbNcVVcccbucccccccccccccu5qqqqtz32ycccmaq:%+o@4m",
"ccxbNCNbccccccccbuNVmmcccccccccccccccccu5>;&=<qzuyccccma%Ooo+&8c",
"ccNNNNccccccccccNbCVmcccccccccccccccuyq7>;&&&<qcmcccqq7=o o@&<qc",
"ccNNbNccccccccccNNCNcccccccccccccuuu5>:&&&;>4qzcccca<&#o.o&4qqzc",
"NbNNNccccccccccNCDCNNcccccccccuyq0z7>:&&&:>5zbczq84<%+ooO%8bcccc",
"CCNNcccccccccbcNHHDNubccccccuu5>:**&;@;>7qyycccq<&@Ooo+%:8zmcccc",
"DCNxcccccccccubNHIDNNcccccccut5:%%&@&&;2yccccccq*@.  o#:accccccc"
};
