/* XPM */
static char *_75d3c2b30464058a43b3f562ef50227ouxn96Tp379TGEAk[] = {
/* columns rows colors chars-per-pixel */
"64 64 11 1 ",
"  c #3E2831",
". c #733E39",
"X c #A3403A",
"o c #F14E3F",
"O c #BC6D4F",
"+ c #B86F50",
"@ c #D55F47",
"# c #DD5945",
"$ c #D45F48",
"% c #D16149",
"& c #E4A672",
/* pixels */
" +&&&&&&++ &&&&&&&&&+++&&&&&&&  ..     ...    &&++&&++&&&&+&&&  ",
"+&&&&&&&&& &&&&&&&&&&&&&&&&&&.. .            ++&+&&&&&&&&&&&&.. ",
"&&&++++&+&& &++++++++&&&++++...    ..   ....+++&&&&++&&&++++... ",
"&&++++++&+&.++++++++++++&++.+..   .  ......+.++&&&++++++&++.+.. ",
"&&++++++++.&++++++++++++++++..    ..........+++&&&+++++++++.+.. ",
"&&+++++++.&++++.+++++++++++++.     ..........++&&&++++++++++... ",
"&&&++++++.+++++&.++++++++.++..    . .... ....+&&&&+&++++++++..  ",
"&&&+++++++++++++&++++++++.++...    ..... ...++&&&&&+++++++++... ",
"+&&++++++++++++++++++++++.++... .  .. ... ..+++&&&&++++++++.... ",
"&&+&++++.++++++++++++++++&+.+.. .  ...  . ..+++&+&&+++++.++.+.. ",
"&&++++..&++++++++++++++++++.+..   ...... ..+.++&+&&+++++&..++.. ",
"&&++++.+++++++++++++.++++++.+..   .+.... ..+.++&&&&+++.+++++... ",
"&&.++++.......+++++++....+++...   +.+++ ....+++&&&+&++.+++++... ",
"&..............................  ++++++.+++++++&&&+&+.&+++++... ",
" .......  ....................  &++++++.++++++&&&&+&+ ++++++..  ",
"                                &&&&&&&&&&&&&&&&&&&+ &++++++..  ",
" +&&&&&++&&&&&.  +&&&&&&& +&&&&&&&&&&+++&&&&&&  &++ & .+++++..  ",
"+&&&&&&&&&&&&.. +&&&&&&&&& +&&&&&&&&&&&&&&&&&.. +  &++&.+++.+.. ",
"&&&&++&&&&++... &&&++&+&&&& +&++++&++&&&&&++...  &&++++&+++.+.. ",
"&&++&&++++++... &&++&&+++++ &++++++&&++++++++.. &&++++++++++... ",
"..++.++++++.+.. &&+&++++++ .+++++++++++++++++.. &&+&+++++++++.. ",
"+&..&+++++++... &&&+++++. +&.++++++++++++++++.. &&&&+++++..++.. ",
"+&&&++++++++... +&&++++.&++++++++++++++++++++.. &&&++++++.++... ",
"&&&+++++++++..  +&&++++.++++++++++++++++..++... &&&+++++++++... ",
"&&+&+++++++++.  +&&+++.&+++++++++++++++.&&....  +&&+++++++++... ",
"&&+&++++.++++.. &&++++.++++++++++++++..&+++...  &&+&++++++++..  ",
"&&&+++++&..++.. &&+&+++.++++++++++++.&&+++++... &&+++++++++.+.. ",
"&&+++..++++.+.. &&&&+++++++++.++O++++++++++.+.. &&++.++++++.+.. ",
"&&.+.++..+.+... +&&++++++++++&.#$++++++++++.+.. &&.++.....++... ",
"&.............. +&&++++++++++++@+++++++++++++.. &.............. ",
" .....  ......  &&++++++++++++++X.+++++++++++..  .............  ",
"                ++ ++++..+++++++&&.++++++++++..                 ",
"..   .        &&  + ++.&+++++++++.&+++++++++...  +&&&&&&&++&&&  ",
".            ++&&&&+ .&+++++++++.&+++++++++.+.. +&&&&&&&&&&&&.. ",
"   .   ..  .+++&&&+&&&+++++++++%+++++++++++.+.. &&&++&+&&&&+... ",
"  . ...  ....++&&&+&++++++++++++o+++++++++++... &&+&&+&++++.+.  ",
"  . .........++&&&&++++++++++++++++.++++++++... &&+&+++++++.+.. ",
"    .......+.+&&&&&++++++++++++++++.++++++++..  &&&+++++++++... ",
"      ......++&&&&&+++++.++++++.++ &++++..++..  &&&++++.+++++.. ",
"  . .. .....+++&+&&++++.&++++++&. &++++.&&..+.. &&&++++&.+..+.  ",
".  .........+++&&&&&+++.+++++++++ ++++.&+++++.. +&&+++++&.&&..  ",
".  ..........++&&&+&++.&+++++++++& +++++++++... &&+&++++.&++... ",
"   ......++.++&&&&++++.+++++++++++ ++++++++.+.. &&++++++++++... ",
"  ..++.....+.+&&&&+.+++.+++..+++++&  ++++...+.. &&+..+++++..+.. ",
"  ++..+++...+++&&&.++......++.+....&& ...+++... &&.+++....++... ",
" ++++++++++++++&&...................+ ......... &.............. ",
"&++++&&+++++++&& ........   .........+   .....   ...   ...  ..  ",
"&&&&&&&&&&&&&&&&                                                ",
"++&&&&&&++& &&&&&&&&+++&&&&&&&   +&&&&&+++&&&&   +&&&&++&&&&&&  ",
"+&&&&&&&&&&& &&&&&&&&&&&&&&&&.. +&&&&&&&&&&&&.. +&&&&&&&&&&&&.. ",
"&&&+&+&&&&&+ +&++&&&&&&&&+++... &&&++&&&&+++... &&&+&+&&&&++... ",
"&&+++&++++++.++&&++++++++&+.+.. +&+&&++++++.+.. &&+&++++++&++.. ",
"&&&++++++++.&.++++++++++++++... &&+++++++++.+.. &&+&+++++++++.  ",
"&&+&+++++++.+.++++++++++++++... &&+&++++++++... +&&++++++++.+.  ",
"&&+&+++++++.+++++++++++.++++... &&+&++++++++... +&&+++++++++... ",
"&&&++++++++&+++++++++++.++++..  &&&+++++.+++..  +&&++++.++++... ",
"&&&+++++++++++++++++.+ &+++.+.  &&&++++.&+++..  &&&++++&.+++... ",
"+&&+++++++++++++++++&. ++++.+.. +&&++++&.++++.. &&+&++++&.++... ",
"+&++++++++++++++++++++& ++.+... +&&+++++&.+.+.. &&++++++.&+.+.. ",
"&&++++...++++++.+++++++& .+++.. &&+++..++.+.+.. &&+.+++++.+.+.. ",
"&&.++.+++......+++..... ++++... &&.++++....+... &&.++....+.+... ",
"&...................... ....... &.............. &.............. ",
" ..........   .......  .......   ....  .......   .......   ...  ",
"                                                                "
};
