/* XPM */
static char *_50f1901262f4858f73e305d2406247dtXVMpgOOhPak6qkM[] = {
/* columns rows colors chars-per-pixel */
"30 60 201 2 ",
"   c #241206",
".  c #26130B",
"X  c #29150C",
"o  c #2D190E",
"O  c #33170E",
"+  c #281511",
"@  c #2D1912",
"#  c #331C11",
"$  c #391E13",
"%  c #36131E",
"&  c #3C141E",
"*  c #381C1B",
"=  c #3A2114",
"-  c #0C122D",
";  c #19122B",
":  c #0B1233",
">  c #0E163B",
",  c #131133",
"<  c #28142A",
"1  c #361222",
"2  c #371527",
"3  c #3A1422",
"4  c #261537",
"5  c #391A3A",
"6  c #3A222E",
"7  c #410E06",
"8  c #430F0A",
"9  c #441009",
"0  c #461F1F",
"q  c #581913",
"w  c #611B0F",
"e  c #621E13",
"r  c #651E1E",
"t  c #432416",
"y  c #482718",
"u  c #4D261B",
"i  c #4D291A",
"p  c #522619",
"a  c #552C1C",
"s  c #553019",
"d  c #5D311E",
"f  c #6A2117",
"g  c #772417",
"h  c #61331E",
"j  c #77341E",
"k  c #431A24",
"l  c #471A26",
"z  c #491B2D",
"x  c #531628",
"c  c #5D0D38",
"v  c #441B36",
"b  c #621D21",
"n  c #64173A",
"m  c #4F2124",
"M  c #532325",
"N  c #5B2523",
"B  c #5E3322",
"V  c #4A2935",
"C  c #462339",
"Z  c #4D2F3B",
"A  c #5A2F33",
"S  c #4E313D",
"D  c #553637",
"F  c #622725",
"G  c #642B23",
"H  c #6A2E22",
"J  c #623421",
"K  c #6C3924",
"L  c #733D26",
"P  c #793A24",
"I  c #743E29",
"U  c #663736",
"Y  c #753B3C",
"T  c #7C412B",
"R  c #774038",
"E  c #0D0D47",
"W  c #0E0D4A",
"Q  c #110D40",
"!  c #131D48",
"~  c #1D1852",
"^  c #271A5C",
"/  c #192658",
"(  c #1B2A5F",
")  c #232C5B",
"_  c #171977",
"`  c #241C68",
"'  c #251E72",
"]  c #1C2D64",
"[  c #1C2D68",
"{  c #1F306B",
"}  c #21336D",
"|  c #252376",
" . c #253777",
".. c #23327C",
"X. c #343B73",
"o. c #671E45",
"O. c #4F3141",
"+. c #573948",
"@. c #7C2A45",
"#. c #75394A",
"$. c #65534B",
"%. c #75594C",
"&. c #6B5C55",
"*. c #755154",
"=. c #6F615A",
"-. c #7A625C",
";. c #802915",
":. c #832A19",
">. c #843B23",
",. c #84462C",
"<. c #85482D",
"1. c #89482D",
"2. c #9F4A26",
"3. c #8A4A36",
"4. c #944E32",
"5. c #965133",
"6. c #995233",
"7. c #A65938",
"8. c #B2603C",
"9. c #8B3640",
"0. c #864745",
"q. c #825B5A",
"w. c #A0455A",
"e. c #BC5E52",
"r. c #81635C",
"t. c #864C6B",
"y. c #A55E63",
"u. c #837975",
"i. c #877878",
"p. c #91777D",
"a. c #A6646D",
"s. c #CF716B",
"d. c #8B817C",
"f. c #9C827F",
"g. c #C8857A",
"h. c #D78675",
"j. c #1B1C87",
"k. c #283E85",
"l. c #23229E",
"z. c #28399C",
"x. c #1F24A7",
"c. c #1F25A9",
"v. c #2122A5",
"b. c #2228A8",
"n. c #2531AA",
"m. c #2832AD",
"M. c #2C3BAB",
"N. c #284087",
"B. c #2A428C",
"V. c #354387",
"C. c #2B4593",
"Z. c #2D4899",
"A. c #324C9B",
"S. c #2F43AD",
"D. c #314EA5",
"F. c #3653AB",
"G. c #3754A8",
"H. c #3144B1",
"J. c #344EB0",
"K. c #3755B2",
"L. c #3856B1",
"P. c #787587",
"I. c #AB7B8A",
"U. c #918783",
"Y. c #9E8582",
"T. c #928A84",
"R. c #99868F",
"E. c #958B89",
"W. c #858A97",
"Q. c #858898",
"!. c #9A8990",
"~. c #A08783",
"^. c #A18884",
"/. c #AC8498",
"(. c #A5989D",
"). c #A8A29E",
"_. c #AF8DA3",
"`. c #AEA6A4",
"'. c #B9ACA9",
"]. c #BEBAB7",
"[. c #D99283",
"{. c #E29982",
"}. c #E7A48B",
"|. c #EEB28E",
" X c none",
".X c none",
"XX c none",
"oX c none",
"OX c none",
"+X c none",
"@X c none",
"#X c none",
"$X c none",
"%X c none",
"&X c none",
"*X c none",
"=X c none",
"-X c none",
";X c none",
":X c none",
">X c none",
/* pixels */
">X>X>X>X>X>X>X>X>X].-.d.-.U.-.U.i.u.u.u.-.oX>X:X:X:X>X>X>X>X",
">X>X>X>X>X>X>X>X>Xd.@ + + + o o X X + . . T.>X:X:X>X>X>X>X>X",
">X>X>X>X:X:X>XOXT.$.= y y s B J T = . $.T.OX:X:X:X:X:X>X>X>X",
">X>X>X>X:X:X>XU.  = i h T T 6.6.5.B . T.:X:X:X>X:X:X:X:X>X>X",
">X>X>X>X:XoXi.$.i d d I ,.5.5.5.T B = $.d.d.T.d.i.oX:X:X>X>X",
">X>X>X>X:XU.. i L L L ,.6.7.8.5.T B i = . X + . . U.>X>X>X>X",
":X:X>XoXi.%.h ,.4.5.5.5.6.6.5.T s d B J J i . $.R.OX:X>X>X>X",
":X:X>XT.  h 6.7.8.8.8.7.6.,.T d s B T <.5.h . T.>X>X:X:X>X>X",
":XoXu.%.J T T T T ,.5.6.7.<.d B J L <.1.<.s   T.>X>X:X:X:X>X",
":XU.  d 5.,.T d y d I 5.8.T s d P <.5.<.T i X T.:X>X:X:X>X>X",
">XT.  p T T d M i d I 1.7.<.d T 1.<.,.,.<.T K %.u.].:X>X>X>X",
">XE.. p T B i i i d T <.6.T T ,.6.1.L <.5.5.6.J   U.>X>X>X>X",
":X+X(.-.t = = i J h d I T ,.1.,.,.I I L K J s = . U.>X:X>X>X",
":X:X>XT.X o X i T J i B T ,.6.,.L L L J i = X . . U.:X:X>X>X",
":X>X>X@X).&.  = d h K h T T ,.L d B p t # &.).&.. U.>X>X>X>X",
">X>X>X>X>XU.  = y d T T T d T s y = = @   T.>XT.+ U.:X:X>X>X",
">X>X>X:X>XU.X . # y d K P h d u t t t $ X U.>X@X).@X:X>X>X>X",
">X>X>X>X>XE.@ @ X = i B T h y t $ t i $ . T.>X>X>X>X:X>X>X>X",
">X>X:X:X>X@X`.&.X # t i B i t t t t = # . U.:X>X>X>X>X>X>X>X",
">X>X:X:X:X>X>XT.. # # t i t $ t u t $ # X U.>X>X>X>X>X>X>X>X",
">X>X>X>X:X>X:XT.. X @ = t # @ $ t $ o =.`.@X:X>X>X>X>X>X>X>X",
">X>X>X:X:X:X;XU.  X . # $ # X @ $ @   T.:X>X>X>X>X>X>X>X>X>X",
">X>X>X>X>X'.r.D . o # @ o o # @ + X X D -.'.>X>X>X>X>X>X>X>X",
">X>X:X:X>Xf.7 O . # * @ + @ $ # + . X O 7 f.;X>X>X>X>X>X>X>X",
">X>X>X'.q.Y f 0 > ~ | ' ' ' | ' ` ^ ; l e Y q..X>X>X>X>X>X>X",
">X>X>XY.7 e g z W _ v.b.v.v.v.c.x._ E z :.e 7 ~.>X>X>X>X>X>X",
":X:X:XY.7 e ;.z E | S.m.x.v.v.m.S.| W z ;.e 7 f.>X>X>X>X>X>X",
":X;X;XY.7 e :.z E ..L.M.v.b.v.M.F.N.E x ;.w O Y.;X;X:X:X>X>X",
">X'.%.U q f g 2 W ..F.J.H.H.H.F.F...E 2 g f q U *.'.:X:X>X>X",
">X^.7 q f r b 5 W k.K.K.L.K.K.L.K...W 5 b b r q O f.:X>X>X>X",
">XY.7 q g x 4 ^ j.z.L.L.L.L.L.K.K.n.j.^ 4 x g w 7 f.>X>X>X>X",
">X~.7 e :.v W _ c.M.K.L.L.L.L.F.K.M.x._ Q z :.e 7 ^.>X>X>X>X",
">X~.7 e :.z E _ b.b.n.S.L.K.K.S.n.b.x._ E k :.f 7 Y.>X>X>X>X",
">X~.8 e :.z Q _ v.v.x.M.K.K.K.M.x.x.v._ Q z :.f 7 ^.>X>X>X>X",
">XI.x >.e.Y < ` v.x.x.n.m.m.n.b.c.x.c.` < Y e.9.x /.>X>X>X>X",
"-XI.o.w.s.0.3 ^ l.l.l.l.l.v.l.l.l.l.l.^ * 0.s.w.n /.-X;X>X>X",
"t.a.g.[.}.-.; 4 5 5 C V v C C C C 5 5 4 ; -.}.[.g.a.t.XX>X>X",
"c a. X X X-.: < 3 k p p p p p p u 0 & < : -.|.|. Xy.c _.>X>X",
"c y. X{.h.$.: ~ X.X.X.X.X.X.X.X.X.X. ./ : *.s.{. Xy.c /.>X>X",
"o.a.}.h.s.#.: [ C.Z.Z.C.z.C.k.C.Z.C.C.] : #.s.[.}.a.n _.>X>X",
"#XI.@.@.@.5 : ( C.A.F. .! / { B.F.A.C.] : 5 @.@.@.I.+X&X>X>X",
">X_.o.o.o.5 : ( C.A.F.{ : ! ] N.F.Z.C.( : 5 o.o.o._.:X:X>X>X",
">X&X#X#X@XP.: { F.C.} / : : ! /  .C.F.{ : -.$X#X#X&X:X:X>X>X",
">X>X>X>X>XQ.: [ K.B.[ ! : : - ! ] B.K.} : W.>X:X>X>X:X>X>X>X",
":X:X:X:X:XQ.: [ Z.C.N.( : : : ( N.B.Z.] : W.:X:X:X:X:X:X>X>X",
":X:X:X:X>XQ.: ] C.C.C.] : > > [ C.C.C.] : W.:X:X:X:X:X:X>X>X",
">X:X:X:X>XQ.: } F.D.D.k./ / / k.F.F.J.{ : W.>X>X>X>X:X:X>X>X",
">X:X:X:X>XQ.: { F.K.F.N.( ( ( k.K.F.K.[ : W.>X>X>X>X>X>X>X>X",
">X>X>X>X>XQ.: [ A.D.L. ., > > } Z.Z.Z.] : W.>X>X>X>X>X>X>X>X",
">X>X>X-X*XP.- ) V.A.G.} : , : ( V.V.V.) - I.*X=X>X>X>X>X>X>X",
">X>X>X`.+.Z < A 3.Y U 6 : : : 6 A R 3.U < C +.`.>X>X>X>X>X>X",
">X>X>XR.1 3 1 H 2.>.H 2 , : , 6 h >.2.H 2 1 1 W.>X>X>X>X>X>X",
">X>X>X!.1 k k h j h M l 2 < 2 l M G P G m k % R.>X>X>X>X>X>X",
">X>X>X(.Z V M F H F N l 1 & 1 k N F H G M V Z (.>X>X>X>X>X>X",
">X>X>X*X$Xp.& 0 N F H 0 1 1 1 k M N a l & p.$X*X>X>X>X>X>X>X",
">X>X>X>X>XR.% k M N H A Z Z Z V m l m k % !.>X>X>X>X>X>X>X>X",
">X>X>X>X:XR.1 1 3 3 0 p.%X%X%Xp.3 & & 1 1 R.>X:X>X>X>X>X>X>X",
">X>X>X>X:X(.Z S O.O.Z (.>X>X>X(.S S S S S (.>X:X>X>X>X>X>X>X",
">X>X>X>X>X*X%X$X%X%X%X*X>X>X>X*X%X%X%X%X$X*X>X>X>X>X>X>X>X>X",
">X>X>X>X>X>X>X>X>X>X>X>X>X>X>X>X>X>X>X>X:X:X:X>X>X>X>X>X>X>X"
};
