/* XPM */
static char *d64fb854b719483de018db43bc9299360Qx8si20SR4ZIPR8[] = {
/* columns rows colors chars-per-pixel */
"64 64 170 2 ",
"   c #2F1B1A",
".  c #321D1C",
"X  c #36201F",
"o  c #301C26",
"O  c #391F2B",
"+  c #311D3B",
"@  c #2F2F2F",
"#  c #322323",
"$  c #3B2524",
"%  c #35222B",
"&  c #3A222D",
"*  c #332A2C",
"=  c #3E2A2A",
"-  c #3E2631",
";  c #352E31",
":  c #3C2B32",
">  c none",
",  c #3B3133",
"<  c #35323C",
"1  c #39343F",
"2  c #3D3B3C",
"3  c #651E39",
"4  c #781F3C",
"5  c #402726",
"6  c #412827",
"7  c #432B2A",
"8  c #482E2D",
"9  c #402632",
"0  c #432B35",
"q  c #492E32",
"w  c #452E39",
"e  c #4A2C39",
"r  c #592736",
"t  c #453334",
"y  c #493335",
"u  c #47313C",
"i  c #4C323E",
"p  c #483D3E",
"a  c #513135",
"s  c #523E3F",
"d  c #692137",
"f  c #68253E",
"g  c #77263D",
"h  c #683337",
"j  c #683338",
"k  c #763338",
"l  c #793338",
"z  c #3A3344",
"x  c #3E3749",
"c  c #3F3255",
"v  c #7E1D41",
"b  c #4D3540",
"n  c #523542",
"m  c #5A3444",
"M  c #553946",
"N  c #4A3C5E",
"B  c #6F2440",
"V  c #6F2943",
"C  c #7C2342",
"Z  c #643445",
"A  c #6E3742",
"S  c #723E50",
"D  c #4C3C64",
"F  c #4B376B",
"G  c #4E396E",
"H  c #543E61",
"J  c #463273",
"K  c #533E74",
"L  c #474546",
"P  c #4B4749",
"I  c #4E4B4C",
"U  c #564446",
"Y  c #514749",
"T  c #5B424C",
"R  c #5C4A4B",
"E  c #4D415F",
"W  c #534F51",
"Q  c #565355",
"!  c #5B5759",
"~  c #5F5A5C",
"^  c #7A4B4F",
"/  c #614F52",
"(  c #644E59",
")  c #675558",
"_  c #68535B",
"`  c #685659",
"'  c #56427A",
"]  c #6C5660",
"[  c #6F5D61",
"{  c #69556C",
"}  c #715667",
"|  c #775C68",
" . c #795E6B",
".. c #644D75",
"X. c #675376",
"o. c #635179",
"O. c #69577C",
"+. c #6B6366",
"@. c #6E6569",
"#. c #76646C",
"$. c #79646B",
"%. c #746A6E",
"&. c #7A696E",
"*. c #7F6571",
"=. c #766C75",
"-. c #7D6B72",
";. c #7C7377",
":. c #88213D",
">. c #862D3B",
",. c #8D283E",
"<. c #9A263F",
"1. c #87333B",
"2. c #93343B",
"3. c #9A333B",
"4. c #A52B3E",
"5. c #AA2D3F",
"6. c #A8333D",
"7. c #BA333E",
"8. c #811E40",
"9. c #802245",
"0. c #8E2240",
"q. c #962541",
"w. c #9B2740",
"e. c #A92E41",
"r. c #88435B",
"t. c #88485F",
"y. c #8A596D",
"u. c #836773",
"i. c #836A75",
"p. c #896D7A",
"a. c #847379",
"s. c #89757D",
"d. c #86787E",
"f. c #8B7B7F",
"g. c #B26564",
"h. c #665085",
"j. c #6A5586",
"k. c #806780",
"l. c #867D81",
"z. c #8C7C83",
"x. c #89778B",
"c. c #937684",
"v. c #927E87",
"b. c #937888",
"n. c #836F95",
"m. c #8A7A91",
"M. c #8F868A",
"N. c #928086",
"B. c #94848B",
"V. c #98818A",
"C. c #98898E",
"Z. c #978C91",
"A. c #9A8C93",
"S. c #9D8E95",
"D. c #90809D",
"F. c #9B8B9A",
"G. c #9F9095",
"H. c #A09197",
"J. c #A3949A",
"K. c #A7989F",
"L. c #A8999F",
"P. c #A294A0",
"I. c #AB9CA2",
"U. c #AEA2A7",
"Y. c #AFA3A8",
"T. c #B7A8AE",
"R. c #B8A9AF",
"E. c #B7A9B2",
"W. c #BAADB2",
"Q. c #BFB1B6",
/* pixels */
"> > > > > > > > > > > > > > > > > > > > > > > > > > > > > > > > > > > > > > > > > > > > > > > > > > > > > > > > > > > > > > > > ",
"> > > > > > > > > > > > > > > > > > > > > > > > > > > > > > > > > > > > > > > > > > > > > > > > > > > > > > > > > > > > > > > > ",
"> > > > > > > > > > > > > > > > > > > > > > > > > > > > > > > > > > > > > > > > > > > > > > > > > > > > > > > > > > > > > > > > ",
"> > > > > > > > > > > > > > > > > > > > > > > > > > > > > > > > > > > > > > > > > > > > > > > > > > > > > > > > > > > > > > > > ",
"> > > > > > > > > > > > > > > > > > > > > > > > > > > > > > > > > > > > > > > > > > > > > > > > > > > > > > > > > > > > > > > > ",
"> > > > > > > > > > > > > > > > > > > > > > > > > > > > > > > > > > > > > > > > > > > > > > > > > > > > > > > > > > > > > > > > ",
"> > > > > > > > > > > > > > > > > > > > > > > > > > > > > > > > > > > > > > > > > > > > > > > > > > > > > > > > > > > > > > > > ",
"> > > > > > > > > > > > > > > > > > > > > > > > > > > > > > > > > > > > > > > > > > > > > > > > > > > > > > > > > > > > > > > > ",
"> > > > > > > > > > > > > > > > > > > > > > > > > > w 9 - > > > > > > > > > > > > > > > > > > > > > > > > > > > > > > > > > > > ",
"> > > > > > > > > > > > > > > > > > > > > > > > > : e 0 9 - - > > > > > > > > > > > > > > > > > > > > > > > > > > > > > > > > > ",
"> > > > > > > > > > > > > > > > > > > > > > > > > , e e 0 9 9 - : > > > > > > > > > > > > > > > > > > > > > > > > > > > > > > > ",
"> > > > > > > > > > > > > > > > > > > > > > > > > > w e e 0 9 9 9 : , > > > > > > > > > > > > > > > > > > > > > > > > > > > > > ",
"> > > > > > > > > > > > > > > > > > > > > > > > > > > w w e 0 9 9 9 - ; > > > > > > > > > > > > > > > > > > > > > > > > > > > > ",
"> > > > > > > > > > > > > > > > > > > > > > > > > > > > u e e 0 9 9 9 - : ; > > > > > > > > > > > > > > > > > > > > > > > > > > ",
"> > > > > > > > > > > > > > > > > > > > > > > > > > > > > 0 e e 0 9 9 9 9 : ; > > > > > > > > > > > > > > > > > > > > > > > > > ",
"> > > > > > > > > > > > > > > > > > > > > > > > > > > > > > 0 9 0 & - 9 9 9 - ; > > > > > > > > > > > > > > > > > > > > > > > > ",
"> > > > > > > > > > > > > > > > > > > > > > > > > > > > > > > 0 ^ w O 9 9 9 9 - ; > > > > > > > > > > > > > > > > > > > > > > > ",
"> > > > > > > > > > > > > > > > > > > > > > > > > > > > > > ; q g.$.w & - = 9 9 - ; > > > > > > > > > > > > > > > > > > > > > > ",
"> > > > > > > > > > > > > > > > > > > > > > > > > > > > t 1.j 9 $.A.Q * O % & & & ; > > > > > > > > > > > > > > > > > > > > > > ",
"> > > > > > > > > > > > > > > > > > > > > > > > > t l 3.6.7.w.4 f S 9.>.q * & % % ; > > > > > > > > > > > > > > > > > > > > > > ",
"> > > > > > > > > > > > > > > > > > > > > > > > j <.4.q.e.w.<.4.8.:.4.7.3.y > ; > > > > > > > > > > > > > > > > > > > > > > > > ",
"> > > > > > > > > > > > > > > > > > > > > > > , ,.C V d d V t.r.9.8.8.<.5.3.y > > > > > > > > > > > > > > > > > > > > > > > > > ",
"> > > > > > > > > > > > > > > > > > > > > > > , B m M - u -.B.s.Z y.y.y.t.e.2.t > > > > > > > > > > > > > > > > > > > > > > > > ",
"> > > > > > > > > > > > > > > > > > > > > > , b m M 0 - -.C.C.f.U N.C.z._ Z r : > > > > > > > > > > > > > > > > > > > > > > > > ",
"> > > > > > > > > > > > > > > > > > > > , h A M n 0 9 w Z.R.E.K.R J.B.z.M M % * > > > > > > > > > > > > > > > > > > > > > > > > ",
"> > > > > > > > > > > > > > > > > > > > l 2.n M M i w e H.Q.W.f.-.I.N.z.T M % % > > > > > > > > > > > > > > > > > > > > > > > > ",
"> > > > > > > > > > > > > > > > > > , l e.>.- b M M i i ` I.T./ J.S.N.z.T M b o > > > > > > > > > > > > > > > > > > > > > > > > ",
"> > > > > > > > > > > > > > > > > j 3.6.q.3 O - n n n 9 i B.K./ G.C.B._ - 0 b & > > > > > > > > > > > > > > > > > > > > > > > > ",
"> > > > > > > > > > > > > > > > y 2.>.g v 3 O O 9 & & O T v.N.R H.B.z.M o o o o > > > > > > > > > > > > > > > > > > > > > > > > ",
"> > > > > > > > > > > > > > > > > > > t ,.0.r % O O % n  .i.) t &.v.*._ b o o % > > > > > > > > > > > > > > > > > > > > > > > > ",
"> > > > > > > > > > > > > > > > > > , k 6.g t ; & & i } *.u.y . y p...{ ( ; * @ > > > > > > > > > > > > > > > > > > > > > > > > ",
"> > > > > > > > > > > > > > > > > > > y a : > > * * 0 ]  .p.V.v.i.i.' D.M.z @ > > > > > > > > > > > > > > > > > > > > > > > > > ",
"> > > > > > > > > > > > > > > > > > > > > > > > > ; ; #.u.i.c.b.k.} z.E.E.N.2 > > > > > > > > > > > > > > > > > > > > > > > > > ",
"> > > > > > > > > > > > > > > > > > > > > > > > > > P l.B.s.| | J _ z.K.E.W.+.@ > > > > > > > > > > > > > > > > > > > > > > > > ",
"> > > > > > > > > > > > > > > > > > > > > > > > > > ;.I.F.X.E H + Y N.C.K.Q.Z.L > > > > > > > > > > > > > > > > > > > > > > > > ",
"> > > > > > > > > > > > > > > > > > > > > > > > > Q P.n.j.K D { $ $ [ z.B.P.W.Z.2 > > > > > > > > > > > > > > > > > > > > > > > ",
"> > > > > > > > > > > > > > > > > > > > > > > > < E h.K K j.J.%.= 6 6 t &.C.L.Y.Q > > > > > > > > > > > > > > > > > > > > > > > ",
"> > > > > > > > > > > > > > > > > > > > > @ > x N K G O.x.Y.G.y . 8 8 7 t ` a.K.Z.Q > > > > > > > > > > > > > > > > > > > > > > ",
"> > > > > > > > > > > > > > > > > > > > > x D K G o.m.Y.R.S.` $ $ 7 $ 7 7 X t / M.%.@ > > > > > > > > > > > > > > > > > > > > > ",
"> > > > > > > > > > > > > > > > > > > z D K G c z =.Q.W.U.C.R . 8 $   $ 7 8 6 6 t t > > > > > > > > > > > > > > > > > > > > > > ",
"> > > > > > > > > > > > > > > > > < D G G c z @ I Y.W.T.G.d.s 5 $ X X $ X 6 8 8 7 7 , > > > > > > > > > > > > > > > > > > > > > ",
"> > > > > > > > > > > > > > > > x E K c z < > @ W T.W.U.N.Y 7 7 X $ $ $ . X $ 8 8 8 , > > > > > > > > > > > > > > > > > > > > > ",
"> > > > > > > > > > > > > > x E ' F c < > > > 1 N.E.U.N.U 7 8 7 X X $ . = $ X $ 7 7 * > > > > > > > > > > > > > > > > > > > > > ",
"> > > > > > > > > > > > z D ' F c < > > > > @ I Y.R.G.U X 7 7 $ .     $ =       X X # > > > > > > > > > > > > > > > > > > > > > ",
"> > > > > > > > > > > @ 1 c c z > > > > > > > M.W.L.a.7 7 # X # $ .   . .           * @ > > > > > > > > > > > > > > > > > > > > ",
"> > > > > > > > > > > > > > @ > > > > > > > Q I.L.C.R   X .     X X               . @ > > > > > > > > > > > > > > > > > > > > > ",
"> > > > > > > > > > > > > > > > > > > > > @ l.I.M.&.=   .       .         X $ X X # > > > > > > > > > > > > > > > > > > > > > > ",
"> > > > > > > > > > > > > > > > > > > > @ ! M.N.R 7 X                   X 6 7 7 = X > > > > > > > > > > > > > > > > > > > > > > ",
"> > > > > > > > > > > > > > > > > > > > > W ~ C.N.7 X X               . = X ) G.N.p > > > > > > > > > > > > > > > > > > > > > > ",
"> > > > > > > > > > > > > > > > > > > > > @ I +.@.Y # # # # # # # # # # X # I @.%.~ > > > > > > > > > > > > > > > > > > > > > > ",
"> > > > > > > > > > > > > > > > > > > > > > > @ > > > > > > > > > > > > > > > @ @ > > > > > > > > > > > > > > > > > > > > > > > ",
"> > > > > > > > > > > > > > > > > > > > > > > > > > > > > > > > > > > > > > > > > > > > > > > > > > > > > > > > > > > > > > > > ",
"> > > > > > > > > > > > > > > > > > > > > > > > > > > > > > > > > > > > > > > > > > > > > > > > > > > > > > > > > > > > > > > > ",
"> > > > > > > > > > > > > > > > > > > > > > > > > > > > > > > > > > > > > > > > > > > > > > > > > > > > > > > > > > > > > > > > ",
"> > > > > > > > > > > > > > > > > > > > > > > > > > > > > > > > > > > > > > > > > > > > > > > > > > > > > > > > > > > > > > > > ",
"> > > > > > > > > > > > > > > > > > > > > > > > > > > > > > > > > > > > > > > > > > > > > > > > > > > > > > > > > > > > > > > > ",
"> > > > > > > > > > > > > > > > > > > > > > > > > > > > > > > > > > > > > > > > > > > > > > > > > > > > > > > > > > > > > > > > ",
"> > > > > > > > > > > > > > > > > > > > > > > > > > > > > > > > > > > > > > > > > > > > > > > > > > > > > > > > > > > > > > > > ",
"> > > > > > > > > > > > > > > > > > > > > > > > > > > > > > > > > > > > > > > > > > > > > > > > > > > > > > > > > > > > > > > > ",
"> > > > > > > > > > > > > > > > > > > > > > > > > > > > > > > > > > > > > > > > > > > > > > > > > > > > > > > > > > > > > > > > ",
"> > > > > > > > > > > > > > > > > > > > > > > > > > > > > > > > > > > > > > > > > > > > > > > > > > > > > > > > > > > > > > > > ",
"> > > > > > > > > > > > > > > > > > > > > > > > > > > > > > > > > > > > > > > > > > > > > > > > > > > > > > > > > > > > > > > > ",
"> > > > > > > > > > > > > > > > > > > > > > > > > > > > > > > > > > > > > > > > > > > > > > > > > > > > > > > > > > > > > > > > ",
"> > > > > > > > > > > > > > > > > > > > > > > > > > > > > > > > > > > > > > > > > > > > > > > > > > > > > > > > > > > > > > > > "
};
