/* XPM */
static char *result[] = {
/* columns rows colors chars-per-pixel */
"30 60 225 2 ",
"   c #0E0B09",
".  c #160A08",
"X  c #3F0C04",
"o  c #25130B",
"O  c #29140D",
"+  c #2C180F",
"@  c #2A1811",
"#  c #351C11",
"$  c #3A1E14",
"%  c #38141D",
"&  c #3B2014",
"*  c #0C132E",
"=  c #18132E",
"-  c #0B1233",
";  c #0E183A",
":  c #191337",
">  c #270E27",
",  c #2A0F26",
"<  c #2D1427",
"1  c #351323",
"2  c #3C1522",
"3  c #3A1B23",
"4  c #38172C",
"5  c #271437",
"6  c #3A1530",
"7  c #36183A",
"8  c #43110B",
"9  c #451309",
"0  c #4A120B",
"q  c #471717",
"w  c #5B1A13",
"e  c #631E12",
"r  c #661F1D",
"t  c #6A1F1C",
"y  c #442316",
"u  c #4A2516",
"i  c #482618",
"p  c #4C261A",
"a  c #4D291A",
"s  c #56261E",
"d  c #522B1B",
"f  c #5D321E",
"g  c #6A271C",
"h  c #72241A",
"j  c #782919",
"k  c #7E2819",
"l  c #62331F",
"z  c #75331E",
"x  c #4F0E27",
"c  c #451B22",
"v  c #4E1E23",
"b  c #481628",
"n  c #571A26",
"m  c #5D0F34",
"M  c #5D0D39",
"N  c #451834",
"B  c #5D113A",
"V  c #641B24",
"C  c #600D32",
"Z  c #62133A",
"A  c #492426",
"S  c #532224",
"D  c #5C2926",
"F  c #5B3324",
"G  c #462737",
"H  c #512C35",
"J  c #4E323E",
"K  c #583139",
"L  c #642C23",
"P  c #6B2C21",
"I  c #633521",
"U  c #683727",
"Y  c #753527",
"T  c #733D26",
"R  c #7C3A25",
"E  c #733E2A",
"W  c #742E38",
"Q  c #693938",
"!  c #77412A",
"~  c #6F4737",
"^  c #784738",
"/  c #0D0D43",
"(  c #0C0D49",
")  c #120E43",
"_  c #0D114E",
"`  c #131746",
"'  c #131F4A",
"]  c #250F41",
"[  c #18275A",
"{  c #3A2948",
"}  c #242959",
"|  c #181975",
" . c #1C2C63",
".. c #1B2B67",
"X. c #1E316C",
"o. c #1E2C78",
"O. c #2C2468",
"+. c #20336E",
"@. c #233573",
"#. c #293878",
"$. c #313172",
"%. c #591644",
"&. c #671C44",
"*. c #543846",
"=. c #523251",
"-. c #732A47",
";. c #472F6F",
":. c #59414D",
">. c #634B46",
",. c #645149",
"<. c #78574D",
"1. c #745654",
"2. c #72625A",
"3. c #695871",
"4. c #7B7070",
"5. c #822917",
"6. c #822C1A",
"7. c #843B27",
"8. c #863831",
"9. c #84472C",
"0. c #89482C",
"q. c #964629",
"w. c #964828",
"e. c #9A4A29",
"r. c #89443D",
"t. c #924D32",
"y. c #965236",
"u. c #9A5334",
"i. c #A34E28",
"p. c #A5583A",
"a. c #AA613E",
"s. c #873647",
"d. c #954849",
"f. c #845746",
"g. c #8E4552",
"h. c #964557",
"j. c #805A56",
"k. c #9D5658",
"l. c #B85F4A",
"z. c #A95B56",
"x. c #896350",
"c. c #9A6854",
"v. c #AF6557",
"b. c #A77456",
"n. c #854868",
"m. c #A65D63",
"M. c #94746D",
"N. c #887C79",
"B. c #A76368",
"V. c #B26F65",
"C. c #B57967",
"Z. c #BF7C74",
"A. c #CA6D67",
"S. c #D3756B",
"D. c #8D827E",
"F. c #9A827E",
"G. c #B9866B",
"H. c #C88B76",
"J. c #DA8978",
"K. c #D9987C",
"L. c #1B1D8B",
"P. c #273C85",
"I. c #2A3395",
"U. c #1E26A4",
"Y. c #2022A9",
"T. c #2C3CAA",
"R. c #463792",
"E. c #2A418D",
"W. c #35458E",
"Q. c #2B4493",
"!. c #2C4998",
"~. c #364FA3",
"^. c #3653AD",
"/. c #3C56A9",
"(. c #324BB1",
"). c #3756B2",
"_. c #736D83",
"`. c #8D7988",
"'. c #A9778A",
"]. c #8E8581",
"[. c #938A85",
"{. c #9A8886",
"}. c #85879A",
"|. c #968796",
" X c #9A8A91",
".X c #A18784",
"XX c #A5938B",
"oX c #A98896",
"OX c #AD849A",
"+X c #A5999B",
"@X c #B1A39C",
"#X c #8D95B0",
"$X c #AF93A3",
"%X c #B1ABAE",
"&X c #B8ABA9",
"*X c none",
"=X c none",
"-X c none",
";X c none",
":X c none",
">X c none",
",X c none",
"<X c none",
"1X c #EEB18E",
"2X c #F1B38F",
"3X c #EEAF91",
"4X c #EEB291",
"5X c #F0B291",
"6X c #C6A8BA",
"7X c #C4BEBC",
"8X c #E9BDAA",
"9X c #CAC2BE",
"0X c none",
"qX c none",
"wX c none",
"eX c none",
"rX c none",
"tX c none",
"yX c none",
"uX c none",
"iX c none",
"pX c none",
"aX c none",
"sX c none",
"dX c none",
/* pixels */
"dXdXdXdXdXdXdXdXdXdXdXdXdXdXdXdXdXdXdXdXdXdXdXdXdXdXdXdXdXdX",
"dXdXdXdXdXdXdXdXdXdXdXdXdXdXdXdXdXdXdXdXdXdXdXdXdXdXdXdXdXdX",
"dXdXdXdXdXdXdXqX].].].].].].].qXdXdXdXdXdXdXdXdXdXdXdXdXdXdX",
"dXdXdXdXdXdXdX[.o o o o o o o ].dXdXdXdXsXdXdXdXdXdXdXdXdXdX",
"dXdXdXdXdX7XD.,.& u a d d u $ ,.D.D.D.7XdXdXdXdXdXdXdXdXdXdX",
"dXsXdXdXdX].o $ a F T T ! l a & o o o [.dXdXdXdXdXdXdXdXdXdX",
"dX7XN.N.N.,.$ $ & y a d f f I l F f a <.F.9XdXdXdXdXdXdXdXdX",
"dX].o o O $ a & o o o & a l T 0.y.9.! f i XXdXdXdXdXdXdXdXdX",
"N.>.$ a U I I a & # o # $ p l T 9.0.u.9.! x.F.9XdXdXdXdXdXdX",
"o # u ! y.0.! l a $ o o @ $ a F ! u.a.p.u.! i XXdXdXdXdXdXdX",
"+X2.# U y.! f I ! I d p $ $ $ y u l t.u.p.! a XXdXdXdXdXdXdX",
"dX[.o f y.T d ! u.0.T I p $ O O + a ! u.a.! a XXdXdXdXdXdXdX",
"N.<.U ! 0.f & I y.! F d a f U U U F u I 0.9.! <.D.&XdXdXdXdX",
"o d u.0.! u o l u.T p a p E d.d.d.F o a ! 0.u.l o D.sXdXdXdX",
"o d 0.l u y & l 9.d + + @ % A >.V.W % q i l 9.d o [.dXdXdXdX",
"O u T d o & a l ! y . .       ~ S.d.x % o i ! a o [.dXdXdXdX",
"o # y y & ~ f.! f ! d.j.4.,.a x.K.z.m x O # u 2.@XeXdXdXdXdX",
"+ + o & a ^ b.<.a d.S.=X*XM.~ G.<XB.m x O O O [.dXdXdXdXdXdX",
"@X2.o + # <.K.G.G.H.K.8XiXXX~ C.<X=XV.<.b 3.@XeXdXdXdXsXdXdX",
"dXD.+ + o x.4X4X1X1X2XrXsX@X~ C.<X<X<Xm.B OXdXdXdXdXdXdXdXdX",
"dXeX&X2.o F f.G.1X1X1X8X0X:XG.-X,XS.h.'.6XwXsXdXdXdXdXdXdXdX",
"dXdXdXD.@ $ i c.,X1X1X1X3X4X5X3X,XB.M $XdXdXdXdXdXdXdXdXdXdX",
"dXdXdXeX&X2.# f.J.;X1X1X3X3X5XZ.g.'.6XeXdXdXdXdXdXdXdXdXdXdX",
"dXdXdXdXdX{.o ^ A.J.,X,X3X5X5XB.B OXdXdXdXdXdXdXdXdXdXdXdXdX",
"dXdXdXdXdX.Xx Z s.z.S.V.s.h.s.'.6XwXdXdXdXdXdXdXdXdXdXdXdXdX",
"dXdXdXdXsXoXZ Z m d.S.h.C B %.'.dXdXsXdXdXdXdXdXdXdXdXdXdXdX",
"dXdXdX&X<.=.] N V z.K.z.V N 5 #XdXdXdXdXdXdXdXdXdXdXdXdXdXdX",
"dXsXsXF.8 > ) 6 r v.1Xv.V 6 ) `.dXsXdXdXdXdXdXdXdXdXdXdXdXdX",
"dX&X<.Q w 6 ( N j 7.p.8.g n b =.3.%XdXdXdXdXdXdXdXdXdXdXdXdX",
"dXF.8 w t 6 / b j k 5.h t t V 6 ( _.dXdXdXdXdXdXdXdXdXdXdXdX",
"dX{.8 w j n b N 7 n 5.k k h r 6 ( }.dXdXdXdXdXdXdXdXdXdXdXdX",
"sXM.9 e 5.h g 4 ( N 5.5.j h L 6 ( }.sXsXdXdXdXdXdXdXdXdXdXdX",
"<.Q w h 5.g 0 , / *.a.~ 5 5 5 *.f.<.<.&XdXdXdXdXdXdXdXdXdXdX",
"9 w r h 5.w 8 > ) *.b.:._ _ _ *.b.! X {.dXdXdXdXdXdXdXdXdXdX",
"8 e j k 5.e 9 , ` O.R.I.I.I.L.O.{ 4 9 .XdXdXdXdXdXdXdXdXdXdX",
"9 e 6.5.k e 9 , ( | Y.T.).(.Y.| / , 8 .XdXdXdXdXdXdXdXdXdXdX",
"8 R l.8.w 0 8 , ) | Y.!.).^.(.o.( > 9 F.dXdXdXdXdXdXdXdXdXdX",
"9 s.S.r.9 9 8 > / | U.T.^././.o.) < q .XaXaXsXdXdXdXdXdXdXdX",
"m k.>Xk.m q 9 > / ] 7 { G 1.M.>.c f.H.B.n.*XdXdXdXdXdXdXdXdX",
"m B.2XB.Z n w < ) 5 1 q w ^ b.^ q c.<Xm.Z '.dXdXdXdXdXdXdXdX",
"C m.5X-XH.A.v.-.< % $ < ] O.R.O.: 1.J.k.&.'.dXsXdXdXdXdXdXdX",
"B B.5X4X5XK.A.s.% 3 3 5 ` | Y.| _ -.A.s.&.$XdXdXdXdXdXdXdXdX",
"C B.4X4X5XV.-.=.#.#.#.#.P.P.Q...- N -.'.wXuXdXdXdXdXdXdXdXdX",
"&.B.>X>X>Xm.C ;.Q.Q.W.E.P.Q.!.[ - 7 &.$XsXdXdXdXdXdXdXdXdXdX",
"wX'.s.-.s.&.Z ;.^.P.X.[ ` X.Q. .- _.wXiXdXdXdXdXdXdXdXdXdXdX",
"dX$X&.&.M %.%.;.).P.[ ' ;  .E.+.* }.dXdXdXdXdXdXdXdXdXdXdXdX",
"dXiXtX`.} $.W.~.).@.; ' [ P.~.+.- }.dXdXdXdXdXdXdXdXdXdXdXdX",
"dXdXdX#X..P.).^.).@.* '  .P.^.+.* }.dXdXdXdXdXdXdXdXdXdXdXdX",
"dXdXdX#X[ #.!.^.).@.- ' ..P.!. .- }.dXdXdXdXdXdXdXdXdXdXdXdX",
"dXdXdX#X[ @.E.!.).+.- '  .@.W.[ = }.dXdXdXdXdXdXdXdXdXdXdXdX",
"dXdXdX}.; ' X.P.!. .- = 4 G U v ,  XdXdXdXdXdXdXdXdXdXdXdXdX",
"dXdXdX}.* ' } @.W.} = > 1 s z S % `.iXaXdXdXdXdXdXdXdXdXdXdX",
"dXdXdX X1 A D U D H A 3 1 L w.Y v K *.$XdXdXsXdXdXdXdXdXdXdX",
"dXdXdX X1 S P P Y L D v 2 z w.R L v $ `.iXpXdXdXdXdXdXdXdXdX",
"dXdXdX X1 S z 7.q.q.q.P A L Y 7.q.Y l K *.+XdXdXdXdXdXdXdXdX",
"dXdXdX X1 v g 7.e.i.i.R D L L 7.q.7.g v 1 {.dXdXdXdXdXdXdXdX",
"dXdXdX X1 q S g z 9.i.e.w.P c $ c q 2 2 1 |.dXdXdXdXdXdXdXdX",
"dXdXdX+XJ H v D L R w.w.e.L 1 G J J J *.J +XsXdXdXdXdXdXdXdX",
"dXdXdXpXyX`.2 2 c v g D D v % `.yXyXeXyXyXpXdXdXdXdXdXdXdXdX",
"dXdXdXdXdX X2 1 1 c S v S b 1  XdXdXdXdXdXdXdXdXdXdXdXdXdXdX"
};
