/* XPM */
static char *_1e957194cf74d53a7286e666811c7baI8rE6dFNO1xP1GEd[] = {
/* columns rows colors chars-per-pixel */
"30 60 218 2 ",
"   c #140C09",
".  c #390E0E",
"X  c #26130B",
"o  c #2B160C",
"O  c #2D190F",
"+  c #331A0F",
"@  c #291613",
"#  c #2E1A12",
"$  c #3C1012",
"%  c #351C11",
"&  c #3A1E12",
"*  c #3B151B",
"=  c #37181C",
"-  c #3C2114",
";  c #3D241B",
":  c #150E3C",
">  c #1A0F3E",
",  c #0C1638",
"<  c #0F183E",
"1  c #2A162A",
"2  c #341323",
"3  c #3B1521",
"4  c #3E1922",
"5  c #271737",
"6  c #301836",
"7  c #3B2C27",
"8  c #372C29",
"9  c #45130A",
"0  c #4A140A",
"q  c #4F130F",
"w  c #491717",
"e  c #581D19",
"r  c #641E1A",
"t  c #422316",
"y  c #452419",
"u  c #47281C",
"i  c #4D291A",
"p  c #56271D",
"a  c #532C1A",
"s  c #55301B",
"d  c #5B311E",
"f  c #67261D",
"g  c #6B211C",
"h  c #792618",
"j  c #6F321E",
"k  c #4D0E2F",
"l  c #451B24",
"z  c #4C1D24",
"x  c #551D27",
"c  c #5A1D22",
"v  c #5A0E34",
"b  c #5E1234",
"n  c #67173A",
"m  c #442829",
"M  c #532224",
"N  c #5A2422",
"B  c #5B2B25",
"V  c #483227",
"C  c #43332C",
"Z  c #5B3322",
"A  c #573628",
"S  c #5C3129",
"D  c #502F33",
"F  c #55333A",
"G  c #662C21",
"H  c #692A23",
"J  c #643523",
"K  c #6C3324",
"L  c #643925",
"P  c #6C3A25",
"I  c #733424",
"U  c #723D26",
"Y  c #7A3828",
"T  c #6D2A33",
"R  c #72223D",
"E  c #623B35",
"W  c #783B35",
"Q  c #4F413B",
"!  c #53433C",
"~  c #7A432B",
"^  c #694437",
"/  c #7C4A3B",
"(  c #78513E",
")  c #160E42",
"_  c #0E154A",
"`  c #171347",
"'  c #111B42",
"]  c #111253",
"[  c #261A45",
"{  c #211D5F",
"}  c #14204C",
"|  c #172657",
" . c #1A265C",
".. c #382847",
"X. c #342E4E",
"o. c #2D334E",
"O. c #1D196C",
"+. c #1B2B69",
"@. c #1E306D",
"#. c #31326A",
"$. c #223675",
"%. c #551848",
"&. c #6A1840",
"*. c #50284E",
"=. c #4F3341",
"-. c #513342",
";. c #46395A",
":. c #6A294C",
">. c #732443",
",. c #772946",
"<. c #742E52",
"1. c #783353",
"2. c #4D2B6B",
"3. c #384877",
"4. c #584B47",
"5. c #71534B",
"6. c #6E625D",
"7. c #725267",
"8. c #822A18",
"9. c #853B26",
"0. c #963D2F",
"q. c #83462E",
"w. c #87472C",
"e. c #8B4A2F",
"r. c #984928",
"t. c #844635",
"y. c #8C4B32",
"u. c #934E32",
"i. c #9B5434",
"p. c #A04D28",
"a. c #A65938",
"s. c #8E4E4C",
"d. c #994855",
"f. c #AF595C",
"g. c #9A684B",
"h. c #926551",
"j. c #9D705E",
"k. c #A36F4F",
"l. c #B9635D",
"z. c #8E5671",
"x. c #9A627D",
"c. c #89757D",
"v. c #BA6562",
"b. c #B3736D",
"n. c #BC726C",
"m. c #C36863",
"M. c #C77768",
"N. c #D57D70",
"B. c #B08169",
"V. c #C8877A",
"C. c #D5887C",
"Z. c #CE967A",
"A. c #D4957F",
"S. c #1D1F99",
"D. c #1C2097",
"F. c #263D85",
"G. c #273D89",
"H. c #323C85",
"J. c #222799",
"K. c #232AA7",
"L. c #2939A9",
"P. c #2A418D",
"I. c #2B4493",
"U. c #2E489B",
"Y. c #314B9E",
"T. c #344DA8",
"R. c #3552AB",
"E. c #3653B2",
"W. c #595A87",
"Q. c #A67B92",
"!. c #96858C",
"~. c #9A8890",
"^. c #A88B92",
"/. c #AE9692",
"(. c #A6959C",
"). c #BAA0A3",
"_. c #B7A7A9",
"`. c #ABA4B0",
"'. c #D69D80",
"]. c #DB9C83",
"[. c #E19A82",
"{. c #DCA285",
"}. c #E4A889",
"|. c #EAAD8C",
" X c #EEB18E",
".X c #EEB492",
"XX c #ECB99C",
"oX c #F1B591",
"OX c #C7BCB9",
"+X c #C8C1BB",
"@X c #D0B7C5",
"#X c #D3CBC9",
"$X c none",
"%X c none",
"&X c none",
"*X c none",
"=X c none",
"-X c none",
";X c none",
":X c none",
">X c none",
",X c none",
"<X c none",
"1X c none",
"2X c none",
"3X c none",
"4X c none",
"5X c none",
"6X c none",
"7X c none",
"8X c none",
"9X c none",
"0X c none",
"qX c none",
"wX c none",
"eX c none",
"rX c none",
"tX c none",
/* pixels */
"tXtXtXtXtXtXtXtXtXeX;X&X&X&X&X&X&X4XtXtXtXtXtXtXtXtXtXtXtXtX",
"tXtXtXtXtXtXtXtXtX4X4.C C C C C C 4.;XtXtXtXtXtXtXtXtXtXtXtX",
"tXtXtXtXtXeX&X&X&X+XV o % % + + o C +X;XeXtXtXtXtXtXtXtXtXtX",
"tXtXtXtXtX5X4.7 7 V y i L P P L i y C 4.4XtXtXtXtXtXtXtXtXtX",
"tXtXtXeX4X+XV + + - a a P P K J i t o V +X&X&X;XeXtXtXtXtXtX",
"tXtXtX5X5.^ P P e.e.U P d i + # O O y u C 7 7 4.4XtXtXtXtXtX",
"rXeX;X+X^ d ~ q.u.e.~ J i ; O o o + a i & & O V OX&XeXtXtXtX",
"tX;X5.^ y.u.a.a.~ U a i + o X O t i K U w.q.a y 8 4.;XtXtXtX",
"tX;X^ a u.a.a.i.U J y t + O % & a d L ~ u.y.s V C 5.4XtXtXtX",
"tX;X^ s a.a.q.U & O O O t a L U e.e.d d u.e.& 7 #X7XeXrXtXtX",
"%X+X^ J i.i.U Z t $ & - i a L U u.u.i i w.e.y A _.3XeXrXtXtX",
"; V e.y.q.P & - W s.s.t.s i a d u.e.- + P ~ y.q.C 4.;XrXtXtX",
"X # q.w.P d . & s.d./ W u ; t i e.q.- % d P e.w.% 7 &XtXrXtX",
"X O L ~ % O l c l.l.#         X P U a y # + P P % C ;XtXtXtX",
"! ! d d O o k n M.M.t X 8 8 ; y J L L Z % % Z Z # C ;XtXtXtX",
"7X%XV # o O k R A.A.( ( ~./.n.f.J Z h.h.B y + o X C &XtXtXtX",
"tX-X6.F * 3 ,.1.}.{.s.5.).OX[.M.5./ j.k.A ; o # Q 6.;XtXtXtX",
"tXrXqX=X:.R '.}.|.}.5.s.2X6XXX|.}.}..XA.u @ X 7 %XqXrXtXtXtX",
"tXtXrX6Xx.z.N.'.|.}.g.j.*X>XXX|..X}.Z.B.; # Q 6.5XrXrXtXtXtX",
"tXtXrXtX8X$X<.>.{..X|.|..XoX.X|..X{.~ s O 7 #X8XrXrXrXtXtXtX",
"tXtXtXtXrX6Xx.z.V.Z.}. X|.|..X|.}.Z.A u 4.6.5XtXtXtXtXtXtXtX",
"tXtXtXtXrXrXqX&X<.,.].oX.X|..X|.C.l.y 7 %XeXtXtXtXtXtXtXtXtX",
"tXtXtXtXrXrXtX6XQ.z.M.'.N.'.A.A.l.d.w D ;XtXtXtXtXtXtXtXtXtX",
"tXtXtXtXrXrXtXwX6X=X<.n n 9.N.m.R n n <.5XtXtXtXtXtXtXtXtXtX",
"tXtXtXtXtXtXtXtXrX1X:.k v >.M.M.R b k :.OX#XqXrXtXtXtXtXtXtX",
"tXtXtXtXtXtXtXtXtX,X#.: x Y A.A.T x ) ) 9 E ;XtXtXtXtXtXtXtX",
"tXtXtXtXtXtXtXeX#X`...6 c T M.V.9.r ) > 9 N ).#XwXtXtXtXtXtX",
"tXtXtXtXtXtXtX,X#.[ x r r g h 8.8.g ) ) c r w E ;XtXtXtXtXtX",
"tXtXtXtXtXtXtX,X#.> e g g g 8.8.g c 6 6 r r 0 S -XrXrXrXtXtX",
"tXtXtXtXtXrXtX,X{ : e g 8.8.8.g ` > x g 8.h 0 B ;XrXrXrXtXtX",
"tXtXtXtXtXqXOX_.;.*.l k c H 9.9.` ) w r h h q G /.+XqXtXtXtX",
"tXtXtXtXtX<XS p g.h.[ ) ) [ g.g.[ ) 9 q h 8.r e e E -XtXtXtX",
"tXtXtXtXtX-XS 0 5.5.] O.+.#.7.7.` ) $ 0 h h g g 0 B -XtXtXtX",
"tXtXtXtXtX-XS . > ] S.K.T.T.K.S.] : $ 0 8.8.h h 0 Z -XtXtXtX",
"tXtXtXtXtX-XS . : ] J.L.E.E.K.S.] : . 9 r h 0.0.0 S -XtXtXtX",
"tXtXtXtXtX-XS . : ] T.E.E.E.K.S.] : $ 9 9 q l.l.e B -XtXtXtX",
"tXtXtXqX@X).s.^ 6 5 W.W.2.3.$.O._ : $ 9 w b M.M.N T <XtXtXtX",
"tXtXtX2X1.,.'.'.J f g.g.A M l 3 : : $ q b >.].].>.<.<XtXtXtX",
"tXtXtX2X<.>.C.V.D m 7.7.m 3 3 2 > 5 H W d.d.[.[.>.<.1XtXtXtX",
"tXtXtX<X<.&.m.v.[ ] K.S.] : = * = M l.N.}..X.X].>.<.4XtXtXtX",
"tXtXtX6XQ.Q.f.d.[ _ J.J.+. .......*.s.f.}.|..X].,.<.2XtXtXtX",
"tXtXtXrXqX1X:.k > < G.I.I.I.P.P.I.H.%.>.].oXXX].R :.1XtXtXtX",
"tXtXrXrXeX6XQ.z.5 < P.P.$.@.F.F.U.L.b R v.b.n.n.x.Q.6XtXtXtX",
"tXtXrXrXtXeXeX,Xo.< F.F.' < | @.T.W.%.b b b v <.2XrXtXeXtXtX",
"tXtXtXtXtXrXtX,Xo.' I.I.} } }  .T.T.2.2...*.Q.Q.6XtXrXrXtXtX",
"tXtXtXtXtXtXtX,Xo.' U.R.@. ., ' U.E.E.T.+.#.,XtXtXtXtXtXtXtX",
"tXtXtXtXtXtXeX3Xo.< I.U.@. ., ' U.R.T.T.+.3.4XtXtXtXtXtXtXtX",
"tXtXtXtXrXrXtX3Xo.< G.I.+. ., ' T.T.U.G.+.3.,XtXtXtXtXtXtXtX",
"tXtXtXtXrXrXrX1XX.1 X.;.[ [ , < I.Y.P.$.| #.4XtXtXtXtXtXtXtX",
"tXtXtXtXrXrXtX-X=.* K K l 1 , ' P.P.@.| , o.&XrXtXtXtXtXtXtX",
"tXtXtXtXtX7X_.!.D z Y I l 2 1 5 ;.;.....1 X.3XrXtXtXtXtXtXtX",
"tXtXtXtXtX1XF 2 z f r.r.l 2 M B f j j f 4 =.-XrXtXtXtXtXtXtX",
"tXtXtX9X`.!.S M I Y 9.9.M z I Y 9.9.K G * -.4XtXtXtXtXtXtXtX",
"tXtXtX<XF * f j r.r.I K M N r.p.r.r.I G 3 -.<XtXtXtXtXtXtXtX",
"tXtXtX<XF 2 M p K H p N I Y r.r.9.9.H B 3 =.4XtXtXtXtXtXtXtX",
"tXtXtX<X=.2 * 2 3 2 3 z r.r.r.r.j j N z 3 F <XtXtXtXtXtXtXtX",
"tXtXtX0X(.!.!.!.!.c.l 4 K U Y I p x l D c.(.9XtXtXtXtXtXtXtX",
"tXtXtXtXtXtXtXrXrX-XF 2 M M M z * 3 2 F <XtXtXtXtXtXtXtXtXtX",
"tXtXtXtXtXtXtXtXrX7X(.!.^.^.^.^.~.~.!.(.8XtXtXtXtXtXtXtXtXtX",
"tXtXtXtXtXtXtXtXrXrXtXtXtXtXtXtXtXrXrXrXtXtXtXtXtXtXtXtXtXtX"
};
