/* XPM */
static char *_9c1024276784afb9518d88ae3042faeU7eKiptciEnrjGLz[] = {
/* columns rows colors chars-per-pixel */
"30 60 215 2 ",
"   c #1B110F",
".  c #370F0F",
"X  c #26140C",
"o  c #2A150D",
"O  c #2E190E",
"+  c #321A0E",
"@  c #3A1E0F",
"#  c #251813",
"$  c #2C1A12",
"%  c #3A1616",
"&  c #331C12",
"*  c #3D210F",
"=  c #3B2119",
"-  c #150F3B",
";  c #0D1639",
":  c #1A143A",
">  c #361323",
",  c #3C1523",
"<  c #3E1823",
"1  c #301933",
"2  c #3B2923",
"3  c #3E312C",
"4  c #461209",
"5  c #4A140A",
"6  c #52170E",
"7  c #471816",
"8  c #551B14",
"9  c #641E1B",
"0  c #472518",
"q  c #44251A",
"w  c #4D2919",
"e  c #542C1B",
"r  c #582819",
"t  c #6D221C",
"y  c #682A1D",
"u  c #792518",
"i  c #64311D",
"p  c #461922",
"a  c #591D25",
"s  c #501836",
"d  c #551539",
"f  c #610E36",
"g  c #68173A",
"h  c #4F2126",
"j  c #542225",
"k  c #5B2524",
"l  c #5B2928",
"z  c #43332C",
"x  c #483329",
"c  c #5A3425",
"v  c #5B302A",
"b  c #4C2837",
"n  c #532932",
"m  c #4C3937",
"M  c #54343A",
"N  c #652525",
"B  c #652B22",
"V  c #6D2E22",
"C  c #742925",
"Z  c #6C3423",
"A  c #673927",
"S  c #6D3A25",
"D  c #733C26",
"F  c #783D27",
"G  c #6C2B35",
"H  c #643834",
"J  c #773D36",
"K  c #59443A",
"L  c #784127",
"P  c #7D4229",
"I  c #634335",
"U  c #744B39",
"Y  c #76493C",
"T  c #0F0F4C",
"R  c #130D43",
"E  c #191443",
"W  c #101B42",
"Q  c #121853",
"!  c #271A42",
"~  c #3C1744",
"^  c #211658",
"/  c #162354",
"(  c #27234B",
")  c #2B334E",
"_  c #34375F",
"`  c #1A1A65",
"'  c #1F1A76",
"]  c #1B2968",
"[  c #223676",
"{  c #3C3270",
"}  c #5A1B44",
"|  c #522B4A",
" . c #513341",
".. c #563C4E",
"X. c #762743",
"o. c #752E4F",
"O. c #71374E",
"+. c #732E52",
"@. c #433F60",
"#. c #483C79",
"$. c #384671",
"%. c #5A4A4B",
"&. c #77564C",
"*. c #6B605B",
"=. c #785665",
"-. c #7D6368",
";. c #812917",
":. c #842B1A",
">. c #883B27",
",. c #86482D",
"<. c #944729",
"1. c #8E4C31",
"2. c #85453A",
"3. c #934E32",
"4. c #965133",
"5. c #9B5235",
"6. c #995638",
"7. c #A14E2A",
"8. c #A75938",
"9. c #B25D3B",
"0. c #B1603B",
"q. c #954C46",
"w. c #835342",
"e. c #935456",
"r. c #A95A52",
"t. c #B75B59",
"y. c #986953",
"u. c #A26C4A",
"i. c #AB6F54",
"p. c #B0625A",
"a. c #BC645C",
"s. c #8C4B67",
"d. c #925A73",
"f. c #B35C60",
"g. c #9B7261",
"h. c #98647B",
"j. c #8D757B",
"k. c #B26967",
"l. c #B8766F",
"z. c #B47771",
"x. c #C36964",
"c. c #C87769",
"v. c #D2776D",
"b. c #C87C75",
"n. c #D57C72",
"m. c #D38779",
"M. c #CC947A",
"N. c #D59D7E",
"B. c #1C1E8C",
"V. c #1D209A",
"C. c #273D85",
"Z. c #283F88",
"A. c #323B84",
"S. c #282292",
"D. c #1C22A2",
"F. c #2327A7",
"G. c #2737A6",
"H. c #4A3581",
"J. c #28408C",
"K. c #2D4695",
"L. c #2C4798",
"P. c #314290",
"I. c #314C9E",
"U. c #324CA1",
"Y. c #344DAD",
"T. c #3752A7",
"R. c #3653AB",
"E. c #314BB1",
"W. c #3653B3",
"Q. c #3855B2",
"!. c #59588C",
"~. c #5F6090",
"^. c #9C6A85",
"/. c #AA7D93",
"(. c #96848C",
"). c #9B898D",
"_. c #A99392",
"`. c #A3949B",
"'. c #B5A19D",
"]. c #BF9BAC",
"[. c #B9A9A9",
"{. c #D69B86",
"}. c #DC9C85",
"|. c #E19E84",
" X c #DDA383",
".X c #DEA188",
"XX c #E3A486",
"oX c #E8AA8B",
"OX c #EDB28F",
"+X c #EEB390",
"@X c #F1B792",
"#X c none",
"$X c none",
"%X c none",
"&X c none",
"*X c none",
"=X c none",
"-X c none",
";X c none",
":X c none",
">X c none",
",X c none",
"<X c none",
"1X c none",
"2X c none",
"3X c none",
"4X c none",
"5X c none",
"6X c none",
"7X c none",
"8X c none",
"9X c none",
"0X c none",
"qX c none",
"wX c none",
/* pixels */
"wXwXwXwXwX-Xz X X o X X o o X X X z 5XwXwXwXwXqXwXwXwXwXwXwX",
"wXwXwXwXwX5X%.3 O o O O $ o & + O x %X,X,X5X0XwXwXwXwXwXwXwX",
"wXwXwXwXqXwX6X*X3 o q 0 0 e A Z S A I I I &.,XwXwXwXwXwXwXwX",
"wX0X,X-X-X-X-X$Xz + w e e e Z S L D e e e I %X5X0XwXwXwXwXwX",
"wX5X%.2 3 z 3 z 0 w Z D D A e e A D S S S S I &.5XwXqXwXwXwX",
"wX5X%.3 # X o O q w A S D S i e D L F D L L e I %X,X0XwXwXwX",
"wX0X6X*Xx o 0 0 O O w e S L D D 3.1.L L 3.1.D S I &.,XwXwXwX",
"wX0X,X[.x + w w & O q w A S D F 4.3.P P 1.1.P D 0 K ;XwXwXwX",
"wX6X%.2 w w A S w 0 O O w e S P 4.5.4.3.L F 3.,.@ x ;XwXwXwX",
"-X[.m * r c S S w = * = q w c Z ,.,.5.5.P ,.3.,.* x ;XwXqXwX",
"= x 6.8.3.1.F Z & & Y >.& X $ + o 0 6.0.4.3.5.1.e K ,XwXwXwX",
"X @ ,.4.,.,.S c = h q.e.c q h 0 @ 0 1.5.5.5.5.3.A U $X;X0XwX",
"X # # O $ $ o @ J q.x.c.x.x.x.a.q.2.@ 0 8.0.9.9.0.6.A &.5XwX",
"# $ m K $ O 0 x J q.e.p.v.n.n.c.w.G & & ,.4.8.8.6.,.w K ,XwX",
"X 3 *X*X3 @ p.p.2 #   2 N.oXOXM.2     # & * L S @ + X z ;XwX",
"K *.6X5Xm 0 a.a.m 3 # 2 N.OXOXN.2 # 3 3 $ & c c K K K *.6XwX",
"7X7XwX3X+.g x.b.'._.U &. X+X+X X&.U _.).v 7 O x =X6X8X8XwXwX",
"wXwXwX3X+.g a.n.$X[.&.1. X+X+XXX2.&.$X[.&.G % m ,XwXwXwXwXwX",
"wXwXwX3X+.g t.m.<X<Xe.&. X+X+X|.w.w.:X6Xb.t.f +.5XwXwXwXwXwX",
"wXwXwX3X^.s.f.b.>X>Xg.y..X+X@X|.y.g.>X>Xx.f.s.^.6XwXwXwXwXwX",
"wXwXwXqX9X-Xo.X.XX@XoXoXOXOXOXOXOXoXoX}.X.+.=X0XqXwXwXwXwXwX",
"wXwXqXqXwX6Xd.s.b.m.oXOXOXOXOX+XOXOX{.{.s.d.6XwXwXwXwXwXwXwX",
"wXwXwXwXwX0X0X1XO.X. X+X@XOXOXOXOX}.J +.3X0XqXwXwXwXwXwXwXwX",
"wXwXwXwXwX9X*X[.+.} z.M.|.XXXXXXM.z.} } ].*X9XwXqXwXwXwXwXwX",
"wXwXwXwXwX;XH % E E b H x.n.v.x.O.b E - 7 H 2XwXwXwXwXwXwXwX",
"wXwXwX0X*X[.B 5 - E s G r.a.t.r.A s E R 7 B [.*X9XwXwXwXwXwX",
"wXwXwX:XH 6 u C ! - t :.;.:.:.:.u t ! E t u 8 H ,XwXwXwXwXwX",
"wXwXwX:Xc 4 u C ^ Q C u ;.;.;.;.u C ^ Q u u 5 v :XwXwXwXwXwX",
"wXwXwX5Xv 5 u C S.S.a t ;.:.u u t j V.S.C u 5 v ,XqXqXqXwXwX",
"qX9X%X'.l 6 u C H.H.s s a a N a a s H.#.C u 6 l '.%X9XwXwXwX",
"wX;XM 6 9 9 9 C u.y.! R R R R R R ! y.u.V 9 t 8 6 M ;XwXwXwX",
"wX:Xv 4 t t 8 N =.=.` ` ` ] ] ] ` ` =.s.N 8 t t 4 B ;XwXwXwX",
"wX,Xc 5 :.u 6 , S.F.F.F.Y.R.R.Y.F.F.F.S.7 5 u u 5 v 2XwXwXwX",
"wX;Xv 5 >.>.6 > ' B.F.G.Y.Q.Q.Q.G.F.B.' > 6 >.>.5 l :XwXwXwX",
"wX,Xl 8 a.a.8 % - Q U.W.Q.Q.Q.Q.Q.U.Q - . a a.a.8 v ;XwXwXwX",
"wX:XG k c.c.8 . - T G.Y.R.Q.Q.Q.E.G.T R 4 8 c.c.a H :XwXwXwX",
"wX3XO.X.|.}.k . R T D.F.W.W.W.E.F.V.T R . r N.}.X.+.3XwXwXwX",
"#X].s.e.XX|.>.G 1 ! { { !.~.~.!.{ { ! 1 C 2.N.XXr.s.].&X9XwX",
"g X.{.OXoXoXn.a.N r i F u.i.i.u.Z B r B a.n.oXOXOX{.X.+.3XwX",
"d X.{.+X@XXXt.e. .b ..%.-.-.-.-.%... .| e.t.XXOX+X{.X.+.3XwX",
"f X.}.@X+X}.X.} Z.L.R.T.K.J.P.K.T.T.K.A.} X.{.OX+X}.g +.2XwX",
"^.^.z.l.l.g.s ~ P.I.U.I.[ [ [ C.I.T.I.P.~ s k.l.l.l.h./.7XwX",
"0X2X+.f f d : W I.R.L.C.W ; / [ J.K.R.I.W : s d f +.2XqXwXwX",
"wX7X/.^.^.d.: W U.R.L.C.; ; / / J.K.R.I.W ! d.^.^./.7XwXwXwX",
"qXqXqXwXwX-X) W I.R.K.C.W ; ; ; C.K.R.I.W ) 1XwXwXqXwXwXwXwX",
"qXqXqXqXwX1X_ / R.R.K.J./ W W W J.K.R.U./ _ 1XwXwXwXwXwXwXwX",
"wXqXqXqXwX4X$.] T.R.I.J.] ] ] ] J.K.Q.R.] $.1XwXwXwXwXwXwXwX",
"wXqXqXqXwX1X@.( { #._ _ ( ( ( ( _ { $.{ ( @.2XwXwXwXwXwXwXwX",
"wXwXwXwXwX2X ., j j j h , > , , h j j j ,  .2XwXwXwXwXwXwXwX",
"wXwXwXwXwX2X ., k k j j , > 1 > h j k k ,  .2XwXwXwXwXwXwXwX",
"wXwXwXwXwX5X ., B B k j , > > < h k B B ,  .5XwXwXwXwXwXwXwX",
"wXwXwX6X[.(.v a B V B k , > > < l B Z y a M (.[.9XwXwXwXwXwX",
"wXwXwX;X ., y V y y y y < > > < V y y V y y %  .2XwXwXwXwXwX",
"wXwXwX2X ., F >.>.>.V k < > > , k V >.>.>.F p  .2XwXwXwXwXwX",
"wXwXwX2X .p <.<.5.<.l h , > > > h l <.7.7.,.p M 2XwXwXwXwXwX",
"wXwXwX8X`.j.F Z Z Z p n j.(.(.j.n p V Z y J j.`.8XwXwXwXwXwX",
"wXwXwXwXwX2XM > > > > m 5XwXwX2XM > > > > b :XwXwXwXwXwXwXwX",
"wXwXwXwXqX7X`.^.(.(.(.`.7XwXwX8X`.).(.(.(.`.6XwXwXwXwXwXwXwX",
"wXwXwXwXqXqXwXwXwXwXqXwXwXwXwXwXwXwXwXwXwXqXqXwXwXwXwXwXwXwX",
"wXwXwXwXqXqXqXwXqXwXwXwXwXwXwXwXwXwXwXwXqXqXqXwXwXwXwXwXwXwX"
};
