/* XPM */
static char *fbd3b0b70e5745c39a42fcc5d793ab05DRRaHxlFnPRFwwft[] = {
/* columns rows colors chars-per-pixel */
"64 64 144 2 ",
"   c #423C3F",
".  c #433F40",
"X  c #464243",
"o  c #494546",
"O  c #494549",
"+  c #4D494E",
"@  c #51474D",
"#  c #4F4B51",
"$  c #534D53",
"%  c #5B4D57",
"&  c #5C4E59",
"*  c #545156",
"=  c #595057",
"-  c #565359",
";  c #5A555B",
":  c #5C595E",
">  c #61525D",
",  c #61595F",
"<  c #5E5C61",
"1  c #655561",
"2  c #615E63",
"3  c #646166",
"4  c #666369",
"5  c #6A666B",
"6  c #6D696E",
"7  c #706A6F",
"8  c #6F6B70",
"9  c #726D73",
"0  c #757176",
"q  c #777478",
"w  c #777378",
"e  c #797578",
"r  c #787479",
"t  c #787579",
"y  c #78757A",
"u  c #79757A",
"i  c #78767A",
"p  c #79767A",
"a  c #79777A",
"s  c #79767B",
"d  c #79777B",
"f  c #7A767B",
"g  c #7A777B",
"h  c #7B777C",
"j  c #79767A",
"k  c #7B787C",
"l  c #7B797D",
"z  c #7C787C",
"x  c #7C787D",
"c  c #7C797D",
"v  c #7D797E",
"b  c #7D7A7E",
"n  c #7D7A7F",
"m  c #7D7B7F",
"M  c #7E7A7E",
"N  c #7E7A7F",
"B  c #7E7B7F",
"V  c #7F7B7F",
"C  c #7F7C7F",
"Z  c #7D797E",
"A  c #7F7B80",
"S  c #7F7C80",
"D  c #7F7C80",
"F  c #807C80",
"G  c #807D81",
"H  c #817D81",
"J  c #817D82",
"K  c #817E82",
"L  c #827E82",
"P  c #827F82",
"I  c #827E83",
"U  c #827F83",
"Y  c #837F83",
"T  c #817E82",
"R  c #838083",
"E  c #838084",
"W  c #848084",
"Q  c #848184",
"!  c #848185",
"~  c #858185",
"^  c #858285",
"/  c #858286",
"(  c #868286",
")  c #868386",
"_  c #868287",
"`  c #868387",
"'  c #878487",
"]  c #858286",
"[  c #878488",
"{  c #878588",
"}  c #878488",
"|  c #888488",
" . c #888588",
".. c #888589",
"X. c #898589",
"o. c #898689",
"O. c #89868A",
"+. c #89878A",
"@. c #8A878A",
"#. c #8A878B",
"$. c #8B878B",
"%. c #898689",
"&. c #8B888B",
"*. c #8B888C",
"=. c #8B898C",
"-. c #8C888C",
";. c #8C898C",
":. c #8C898D",
">. c #8D898D",
",. c #8C8A8D",
"<. c #8D8A8D",
"1. c #8D8A8E",
"2. c #8E8A8E",
"3. c #8E8B8E",
"4. c #8E8B8F",
"5. c #8E8C8F",
"6. c #8F8C8F",
"7. c #8D8A8D",
"8. c #8F8C90",
"9. c #8F8D90",
"0. c #8F8C90",
"q. c #908D90",
"w. c #908D91",
"e. c #918E91",
"r. c #928F92",
"t. c #918E91",
"y. c #939093",
"u. c #939094",
"i. c #949194",
"p. c #959295",
"a. c #969396",
"s. c #979497",
"d. c #959295",
"f. c #979598",
"g. c #979498",
"h. c #989598",
"j. c #989698",
"k. c #999699",
"l. c #9A979A",
"z. c #999699",
"x. c #9B989B",
"c. c #9C999C",
"v. c #9D9A9D",
"b. c #9B989B",
/* pixels */
"1 1 1 1 1 1 1 1 1 1 1 1 1 1 1 1 1 1 1 1 1 1 1 1 1 1 1 1 1 1 1 1 1 1 1 1 1 1 1 1 1 1 1 1 1 1 1 1 1 > 1 1 1 1 1 1 1 1 1 1 1 1 1 1 ",
"1 1 1 1 1 1 1 1 1 1 1 > 1 1 1 1 1 1 1 1 1 1 1 1 1 1 1 1 1 > 1 1 1 1 1 1 1 1 1 1 1 > 1 1 1 1 1 1 1 1 1 1 1 1 1 1 1 1 1 1 1 1 1 1 ",
"1 > > > > > > > > > > > > > > > > > > , > > > > > > > > > > > > > > > > > > > > > > > > > > > > > > > > > > > > > > > 1 > 1 1 1 ",
"1 & 9 9 9 7 6 9 9 9 7 7 9 9 9 9 9 9 5 2 @ , 9 9 9 5 7 9 9 9 6 9 9 9 9 9 9 7 5 > + 5 9 9 9 7 7 9 9 7 7 9 9 9 9 9 9 5 1 ; . > 1 1 ",
"1 1 k.k.h.q.8.f.s.t.-.r.c.k.v.c.k.u.o.z < m v.h.g.>.t.h.s.2.#.h.b.k.v.h.s.r.Y r < 6.x.f.p.=.p.k.i.>.>.b.b.b.b.h.g.#.J 6 + & 1 1 ",
"> 2 y.>.o.( { >.| z v -.y.$.y.q.>.o.z 0 2 z p.=.X.Y -.>.Y u U w.w.-.p.t.-.Y z 7 2 >.8.=.{ E >.=.H h Y d.-.t.r.8.#.J u 5 $ & 1 1 ",
"1 , | H f E >.o.z V | | v u F X.{ z 0 5 - 0 =.m h X.-.Y z H -.Y z h H -.Y z 9 2 - H _ z z =.=.A h Y >.H z z Y #.J u 9 2 O & 1 1 ",
"1 , ' f z H S z | I H F u v u F z k z 0 - 0 ' f F H v H | H H z z z u J z z z 9 - E H h S H k ( Y H H u z z z U f z u 2 O & 1 1 ",
"> , 8.S f m R ' ( z f f z S q 9 0 H ' 8 - q 8.k f S E ' H d s k A z 0 9 h ( S 4 - o.o.h k H ( ( A q h z S k 0 9 z | s < O % 1 1 ",
"1 2 8.R 0 0 H ' | z k h k h 9 0 m =.E 6 : d 6.S 9 f E { ' k k d k f 9 0 E o.z 4 < { { h 9 z ( { U k k k k 0 8 f _ o.w 2 # % 1 1 ",
"1 ; H d 5 6 q m ( S f w 9 8 4 9 d k 0 4 < 0 R 0 4 8 f S E k q 0 9 8 4 q k q 8 3 < A A 8 5 9 d R U z w 9 9 6 6 d z q 6 2 * & 1 1 ",
"1 % 6 4 < < 5 6 9 9 5 4 4 4 < 2 < : : : : 5 6 3 < 3 6 8 0 8 5 4 4 3 < 2 < : < : < 6 6 3 < 3 6 8 9 8 4 4 4 < < 2 < : : : $ & 1 1 ",
"1 $ 2 2 ; - - ; 3 3 < : ; 3 - - - - - - - : 3 3 - - - < 3 3 < ; : 2 - - - - - - - < 3 : - - - 3 3 3 < - 2 < - - - - - - + & 1 1 ",
"> > W w.6.6.6.6.8.{ 6 0 8.8.8.{ o.>.>.6.' E { 8.>.6.>.8.8.S 4 S w.8.>.E =.>.>.=.E ( 6.8.6.6.6.q.>.h 4 { w.8.o.( >.>.>.-.8 & 1 1 ",
"> ; E w.>.6.u.u.u.{ 6 q k.#.E h z ' =.E =.o.o.y.>.w.u.p.y.R 4 { p.o.H u H { o.( 6.{ >.8.=.y.p.y.,.d 5 d.8._ A u Y o.Y #.u ; 1 1 ",
"1 ; (  .f m =.,.' m 3 9 8.k k 8 8 9 d H H ( ' ( q E =.=.E q < E o.f f 8 8 0 z H E ' { S q { >.=.E 8 < 8.H h 0 8 8 f J Y 7 & 1 1 ",
"1 > H h 9 k { o.m 0 : 6 6.z h f w 0 z =.A H U q 9 S { _ k 8 : S o.k q q 0 q S =.k ( k 0 0 E =.S q 5 < +.H k f f 0 q { ' 4 ; 1 1 ",
"1 % 9 9 f ( o.z f 6 2 q k.=.8 w R ( S =.U h 9 9 A o.E z w 5 < { p.U 8 k E E E +.S q 9 0 H =.S h 0 3 3 u.6.f 9 z { H ( { 5 & 1 1 ",
"> ; z z h z z f z q : 9 p.H 0 8 6 8 q S f h A k q S k q k 9 ; ( 8.A 0 6 8 9 k S q z A f f S q k k 4 : u.o.f 9 6 8 0 k A 2 & 1 1 ",
"1 = 9 9 5 9 0 5 6 q : 5 o.9 0 f q 8 8 q w w 0 8 6 w 8 6 8 9 - z H 8 w h w 8 8 q w f 9 6 8 w 6 6 0 6 ; { q 9 q f 9 8 9 h 4 & 1 1 ",
"1 $ 5 5 4 3 4 2 3 4 - 3 h 5 8 8 8 4 3 4 6 8 5 5 3 4 3 3 3 3 * 9 w 5 8 9 6 3 3 5 8 8 5 4 3 4 3 3 3 < - d 8 6 8 9 5 2 4 6 1 & 1 1 ",
"1 $ < < ; - - ; - - * - 2 < 2 3 < : - ; : 2 2 ; - - - - - - $ < < < 3 2 < ; - - < 2 < ; - - - - - * $ 2 < < 3 3 < ; - ; $ & 1 1 ",
"1 $ 5 3 3 3 < 3 3 3 2 3 3 4 8 8 8 6 < : * 2 6 3 3 2 3 3 3 3 2 2 3 4 8 8 8 4 < ; * 4 5 3 3 2 3 3 3 3 < 3 3 6 6 8 8 3 2 = O & 1 1 ",
"1 1 f.f.f.8.8.k.h.p.6.w.k.k.k.k.k.u.o.k : h c.f.s.>.y.f.f.u.=.p.k.f.c.l.x.8.' 0 : =.k.f.p.>.p.k.f.y.6.f.k.k.x.f.f.=.Y 6 O ; 1 1 ",
"1 2 p.t.8.o.' w.>.H S >.f.r.k.u.8.=.S q 3 m f.6.6.( =.6.#.k U p.p.y.k.w.8.o.A 9 3 9.u.8.=.E 6.8.( k ( f.u.p.f.8.8.E k 8 # & 1 1 ",
"1 , >.Y z ( =.=.z z ' o.E k _ =.+.S q 6 ; 0 6.R k { >.' k S o.{ H A { =.{ z 0 4 ; ` #.S S =.>.H k H o.{ A H =.=.E h 9 2 + & 1 1 ",
"> > ' z k U E H E H ( H h h h U S k k 9 - 0 { d k E R H E H _ z k k k E A k q 5 - S U d S { S U E E E k h f D E h k 0 2 O & 1 1 ",
"1 2 >.z z z H H { A k h k A w w q z E 9 - 0 =.d z S S E { k k h k A w w f H S 5 - ` ! d k S S { U k k f S k 0 q s E h 3 o & 1 1 ",
"1 1 w.( 0 f E =.E h q h A k w 8 h { ` 6 - k e.D 0 z { { U f h k S k 9 8 z o.S 4 ; #.#.d 0 A o._ A q f k A 0 8 0 E =.s < O & 1 1 ",
"> : ( S 6 8 f H #.S A s 0 0 5 w E ( k 5 < q { s 6 0 k ( { A k s 0 8 6 k { E 0 4 3 ! ! 0 5 w A { ( A k w 0 8 8 S { S 8 3 # & 1 1 ",
"1 % 0 6 3 3 8 q f q 8 5 5 5 < 4 4 3 3 < < 8 0 5 < 4 9 q q w 8 5 5 4 3 5 4 3 2 < < 0 8 4 2 8 w q w 0 8 5 5 3 3 6 3 3 < 2 - & 1 1 ",
"1 $ 2 2 - * - : 3 3 3 < ; < - - - * $ * * < 3 < * - ; < 3 3 2 ; : < * - * $ * * - < 3 ; * - ; 2 3 3 < - < ; - - # - # - O & 1 1 ",
"> = q m d f f d S d 4 6 k S f 0 q d f h 0 0 k A d f d z m q 3 8 k S q 0 q k f f 9 q z z k f f m k 9 3 q A k q 0 q h k q 2 % 1 1 ",
"1 ;  .s.y.s.s.s.s.,.6 q x.u.8.( { 8.y.w.6.=.8.g.y.s.k.f.u./ 4 =.f.y.8.E =.w.w.6.8.=.u.s.p.f.k.f.y.k 4 d.g.r.=.E 8.u.w.8.f ; 1 1 ",
"1 ; m =.G ( ;.6.=.K 4 q y.S f 8 8 q z z ( ( _ o.z o.=.>.{ k 3 E >.k q 8 9 h z m o.E { E S =.>.>.E 0 4 e.E k 0 8 0 k k E 9 & 1 1 ",
"> , ' H 9 q ' =.S q : 6 =.f k f 9 9 f =.z H { k 9 m =.o.z 0 ; z _ h k q 8 9 H o.h { E w 9 E =.E k 5 : +.A k h 0 8 0 E ( 4 > 1 1 ",
"1 = 0 9 q '  .H f 6 < q s.o.9 f U ( S =.H z w 8 k o.( z 0 5 < ' u.U 8 A ( U E =.A h 9 0 H o.E k 9 4 4 y.6.q 9 S | H X.X.5 & > 1 ",
"> > u z f G H d k 0 : 0 f.( 0 8 9 w h E k h k f f R A k k 6 : ( u.S 9 8 0 q A H h A h q k E h k q 4 < u.=.k 9 8 0 u H H 4 > 1 1 ",
"> % 0 0 9 0 q 9 0 0 : 6 >.0 0 q 9 8 9 h w f f 0 8 f 0 9 0 0 - H ( 0 w 0 9 8 0 f q h h 9 9 h 9 0 q 6 ; ,.z 0 w 0 9 7 u u 2 & 1 1 ",
"1 % 6 6 4 5 6 3 4 6 : 5 S 6 9 q w 5 4 8 9 9 8 4 4 6 5 4 4 6 - 0 q 6 0 q 9 4 5 8 9 9 5 4 4 8 4 3 6 3 - S 9 8 0 q 9 4 5 0 2 > 1 1 ",
"1 $ 3 3 < ; : : : : * : 6 3 3 4 2 < : : 2 3 4 2 : : ; : : ; $ 3 5 3 4 4 < : : < 3 4 4 < : : : ; : - * 6 5 3 4 4 2 : : < ; & 1 1 ",
"1 $ < ; - - - - - - * - - ; 3 3 3 < - * * : < - - - - - - - - - - : 2 3 3 : * * * < : - - - - - - - * - - < 3 3 2 - * * O & 1 1 ",
"1 , o.>.>.( ( =.>.>.( ( >.>.6.8.8.=.H q ; 0 w.>.=.( o.>.=.=.E o.>.>.8.w.w.o.A 8 - E 8.>.=.E =.>.6.{ E =.>.6.8.8.>.( z 4 O & 1 1 ",
"1 1 k.p.p.>.o.y.y.{ ( 8.x.s.x.s.u.8.( d < S x.p.u.o.8.p.w.( ' p.k.f.v.p.u.>.U 0 < 6.k.u.w.{ y.u.>.E o.x.s.k.x.u.r.o.A 8 # & 1 1 ",
", 1 8.o.E ( { =.E z U =.=.( >.6.=.E f 9 < f w.' E ( =.o.S k ' >.o.{ 8.>.#.H w 5 < =.>.( E { >.{ m z { 6._ o.8.>._ A 9 4 + & 1 1 ",
"1 : { A f R o.( z S { ( k f z ( ( k q 6 - 0 =.d f { o.H m H { H f h A { S h 0 4 - H E h z o.{ S m ( o.z q h E { A h 9 < O & 1 1 ",
"> , =.h A S A z o.U S k h A f d f f H 0 - 0 ' f A S z H =.m S f k A q k h k A 6 - R H f S S k ( ( S S f A h h z q H h 4 O & 1 1 ",
"1 1 w.U q k ( o.H h w h S A q 8 0 R ' 6 - d y.z f z {  .H q f k S z 0 8 h { S 4 - =.=.h q H =.( z q f z S h 9 8 A #.w < o & 1 1 ",
"1 , -.H 9 9 k ( o.S z k q q 8 w K { S 6 : d =.k 8 q S ' { m z k q 0 8 k { { k 4 < ' ' q 6 f H =.E A z h q 9 8 z #.E 0 3 # & 1 1 ",
"> ; z 9 4 5 0 d S z q 9 8 8 3 8 0 0 6 3 < 9 m 8 3 6 q k m d 0 8 8 6 3 8 9 8 5 2 3 d q 6 3 8 f z A q 9 8 8 4 5 0 9 8 4 3 * $ 1 1 ",
"1 $ 4 3 : ; 2 3 6 6 3 < < 3 ; ; ; - - - - 3 4 2 - : < 4 6 5 4 < < 2 - : ; - - - - 4 4 : ; < 3 5 6 5 3 < 3 : ; : - - - - $ & 1 1 ",
"1 $ 5 8 4 2 2 3 6 6 3 < 3 8 3 < < 3 3 3 2 4 6 6 3 3 3 4 6 6 < < 4 6 3 < 3 3 3 2 < 5 6 5 3 3 3 5 6 5 < 2 6 4 2 < 3 3 3 2 $ ; 1 1 ",
"> , o.k.s.s.h.h.f.=.8 q f.f.p.=.>.p.s.p.>.=.8.k.s.f.k.f.p.' 4 ' k.p.u.o.r.g.p.u.6.=.y.s.p.f.f.k.8.m 4 u.k.s.8.=.y.h.p.y.0 & 1 1 ",
"1 & H >.' o.w.6.6.E 6 q f.E k 9 0 S E k o.{ { >.' =.8.8.>.S 3 =.w.R k 8 q S H A =.E =.=.( 6.w.w.{ q 4 u.=.S q 9 f H V W 0 & 1 1 ",
"> > ' ( 0 f o.=.E k 2 8 =.h z w 8 8 h ( A ( #.S 8 S =.=.H 0 : z ( f k 9 8 9 A ( z o.' f 0 E >.{ S 8 < +.S h q 9 6 0 I W 4 > 1 1 ",
"1 ; z 9 0 S { ( k 8 < 9 w.U w h k A z =.S A z 9 q ( { S q 6 : R 6.A w k S z H >.z m q 0 f { { z 0 4 < 8.{ f q z H z  .' 5 > 1 1 ",
"1 = 0 0 d W ^ d f 8 < q k.{ 0 0 m S m o.H k q 0 z { H k q 6 : ' u.H 8 w A A H { z f 0 0 S { S h 0 4 3 p.6.f 9 d H z ( ( 5 & 1 1 ",
"> = d z 0 d d 0 k q : 8 y.k q 8 6 6 0 z f d z f 0 z q q f 0 - R =.d 0 8 5 9 q z f z z f w z 0 f q 5 : 8.R q 0 6 6 9 k z 3 & 1 1 ",
"1 = 6 6 5 7 9 5 5 9 : 5 ( 6 9 k e 7 5 0 0 0 9 5 6 9 6 4 6 6 - d z 8 w h w 8 8 0 0 0 6 5 6 0 5 5 8 5 ; ( 0 8 q k 9 6 8 0 4 & 1 1 ",
"1 $ 4 4 3 3 3 , < 3 - 2 0 5 5 6 4 3 : 3 4 5 5 5 < 2 3 < 2 2 * 5 0 4 5 6 3 2 < 2 5 6 5 3 2 2 < < 2 : - 9 6 5 6 6 3 2 2 4 : & 1 1 ",
"1 $ : ; - * * * * * * * ; - < 2 3 : * * - : : ; - * * * - * + ; ; ; 2 2 < ; - - ; , : - * * * - * * # - ; : 3 < < - $ - + & 1 1 ",
"1 @ o . . . . . . .   . X . O O O o . . . X o   X   . . . . . . . X O O O X .   X o X   . .   X X   X X . X o o o X . . . & 1 1 ",
"1 > > > > > > > ; > > > > > > > > > > > > > > > > > ; > > > > , > > > > > > ; > > > > > > > > > > > ; > > > > > > > > > > 1 1 1 ",
"1 1 1 1 1 1 1 1 1 > 1 1 1 1 1 1 1 1 1 1 1 > 1 1 1 1 1 1 1 1 1 1 1 > 1 1 1 1 1 1 1 1 , 1 1 > 1 1 > 1 1 1 1 1 1 1 1 1 1 1 1 1 1 1 "
};
