/* XPM */
static char *_1ff0ca628f246b2d22787d3bd6b2dc5kTfhI6blR07u2Dmc[] = {
/* columns rows colors chars-per-pixel */
"48 48 11 1 ",
"  c None",
". c #3A1F09",
"X c #623D1E",
"o c #1D0051",
"O c #A55500",
"+ c #87007F",
"@ c #D08400",
"# c #411096",
"$ c #6B4BCC",
"% c #9572FF",
"& c #E8D186",
/* pixels */
"                                      ......    ",
"                                      ......    ",
"                                      ......    ",
"                                   ...OOO@@@... ",
"                                   ...OOO@@@... ",
"                                   ...OOO@@@... ",
"                                ooooooXXXOOO... ",
"                                ooooooXXXOOO... ",
"                                ooooooXXXOOO... ",
"                       ooooooooo######ooo...    ",
"                       ooooooooo######ooo...    ",
"                       ooooooooo######ooo...    ",
"                    ...#########$$$$$$ooo       ",
"                    ...#########$$$$$$ooo       ",
"                    ...#########$$$$$$ooo       ",
"                 ...OOO######$$$%%%ooo          ",
"                 ...OOO######$$$%%%ooo          ",
"                 ...OOO######$$$%%%ooo          ",
"              ...@@@OOO###$$$%%%$$$ooo          ",
"              ...@@@OOO###$$$%%%$$$ooo          ",
"              ...@@@OOO###$$$%%%$$$ooo          ",
"           ...&&&&&&@@@OOO$$$$$$###ooo          ",
"           ...&&&&&&@@@OOO$$$$$$###ooo          ",
"           ...&&&&&&@@@OOO$$$$$$###ooo          ",
"        oooOOO&&&+++&&&@@@OOOOOO...             ",
"        oooOOO&&&+++&&&@@@OOOOOO...             ",
"        oooOOO&&&+++&&&@@@OOOOOO...             ",
"     ooo###OOO@@@&&&+++&&&@@@...                ",
"     ooo###OOO@@@&&&+++&&&@@@...                ",
"     ooo###OOO@@@&&&+++&&&@@@...                ",
"  ooo#########OOO@@@&&&&&&...                   ",
"  ooo#########OOO@@@&&&&&&...                   ",
"  ooo#########OOO@@@&&&&&&...                   ",
"  ooo######$$$$$$OOOOOO...                      ",
"  ooo######$$$$$$OOOOOO...                      ",
"  ooo######$$$$$$OOOOOO...                      ",
"  ooo######$$$%%%$$$ooo                         ",
"  ooo######$$$%%%$$$ooo                         ",
"  ooo######$$$%%%$$$ooo                         ",
"     ooo###$$$$$$ooo                            ",
"     ooo###$$$$$$ooo                            ",
"     ooo###$$$$$$ooo                            ",
"        ooooooooo                               ",
"        ooooooooo                               ",
"        ooooooooo                               ",
"                                                ",
"                                                ",
"                                                "
};
